<?xml version="1.0" standalone="no"?>
<!DOCTYPE svg PUBLIC "-//W3C//DTD SVG 20010904//EN"
 "http://www.w3.org/TR/2001/REC-SVG-20010904/DTD/svg10.dtd">
<svg version="1.0" xmlns="http://www.w3.org/2000/svg"
 width="1280.000000pt" height="1280.000000pt" viewBox="0 0 1280.000000 1280.000000"
 preserveAspectRatio="xMidYMid meet">
<metadata>
Created by potrace 1.14, written by Peter Selinger 2001-2017
</metadata>
<g transform="translate(0.000000,1280.000000) scale(0.100000,-0.100000)"
fill="#000000" stroke="none">
<path d="M7364 12024 c-37 -6 -108 -63 -129 -105 -28 -54 -8 -189 37 -247 44
-58 52 -62 147 -69 55 -3 91 -10 91 -17 0 -6 4 -5 9 2 7 11 82 14 392 13 211
-1 416 -4 454 -7 39 -3 90 -7 115 -9 113 -7 300 -26 354 -36 62 -11 164 -7
281 11 39 5 97 14 129 18 70 8 375 -3 461 -17 58 -10 370 -26 410 -22 19 3
340 4 360 2 37 -4 232 6 242 12 12 8 181 5 588 -10 88 -3 175 -5 194 -5 19 1
42 -3 51 -8 10 -5 20 -7 23 -3 4 3 37 7 74 9 37 2 83 6 102 8 19 3 39 2 45 -1
5 -4 33 -5 62 -4 48 2 56 -1 90 -32 20 -18 38 -42 39 -53 1 -10 5 -27 9 -36
14 -40 15 -49 6 -43 -6 3 -10 -3 -10 -14 0 -51 -107 -71 -272 -50 -57 7 -209
10 -383 8 -42 0 -383 7 -790 17 -161 4 -243 10 -248 18 -6 8 -10 8 -14 -1 -2
-7 -11 -13 -19 -13 -9 0 -13 3 -11 8 3 4 -17 7 -44 7 -27 0 -49 -2 -49 -5 0
-3 -38 -6 -84 -6 -47 -1 -185 -5 -308 -9 -123 -5 -299 -9 -393 -9 -214 -1
-1035 13 -1095 19 -205 20 -255 25 -325 34 -44 5 -117 13 -163 16 -51 5 -88
13 -97 22 -8 8 -15 10 -15 5 0 -14 -303 -3 -312 11 -6 9 -8 8 -8 -2 0 -11 -3
-11 -15 -1 -11 9 -22 9 -51 0 -35 -12 -407 -9 -742 6 -145 7 -178 0 -220 -46
-46 -49 -65 -128 -43 -182 5 -13 12 -36 16 -51 3 -16 20 -44 38 -62 32 -32 34
-33 147 -39 178 -10 311 -19 425 -30 28 -2 111 -7 185 -11 74 -3 164 -10 200
-15 36 -5 121 -12 190 -15 146 -7 224 -13 300 -21 30 -3 76 -7 101 -9 25 -1
56 -9 70 -18 13 -8 41 -19 62 -22 20 -4 37 -13 37 -20 0 -15 31 -23 80 -19 19
1 48 2 63 3 16 0 26 5 23 10 -3 5 40 18 97 29 79 16 129 21 222 18 143 -4 290
-13 325 -21 25 -5 301 -33 330 -33 8 0 65 -3 125 -6 61 -3 175 -8 255 -11 160
-5 359 -14 460 -20 36 -3 135 -7 220 -10 426 -14 536 -19 550 -26 11 -5 131
-8 460 -13 394 -5 578 -18 621 -43 16 -10 29 -21 29 -25 0 -4 6 -8 14 -8 12 0
27 -21 30 -42 1 -3 4 -10 9 -14 4 -4 7 -29 7 -55 0 -92 -63 -119 -228 -100
-208 23 -278 30 -372 35 -120 6 -164 11 -275 31 -82 14 -242 19 -485 13 -36
-1 -128 4 -205 10 -77 7 -182 15 -234 17 -51 3 -97 8 -102 10 -4 3 -43 8 -86
10 -43 3 -89 8 -101 11 -13 2 -65 7 -115 9 -51 3 -135 10 -187 16 -52 7 -161
12 -242 11 -82 0 -148 3 -148 6 0 4 -77 6 -172 5 -94 0 -228 3 -297 9 -69 5
-178 11 -242 13 -96 3 -128 8 -180 29 -35 14 -83 28 -106 32 -25 4 -40 11 -36
17 4 7 -9 8 -38 3 -24 -4 -45 -11 -47 -16 -2 -6 -14 -10 -26 -10 -12 0 -27 -5
-32 -10 -15 -15 -259 -21 -351 -10 -65 9 -422 32 -473 32 -8 -1 -55 3 -105 8
-49 5 -148 12 -220 15 -71 4 -177 10 -235 16 -136 12 -334 12 -435 -1 -44 -5
-107 -12 -140 -15 -117 -11 -205 -98 -205 -203 0 -37 42 -142 57 -142 4 0 37
-5 73 -10 36 -5 109 -11 163 -14 54 -3 101 -8 106 -10 4 -3 37 -6 74 -8 36 -1
64 -5 62 -8 -2 -3 29 -7 68 -9 219 -10 337 -22 337 -34 0 -5 5 -5 13 2 8 6 17
7 23 2 5 -5 62 -6 129 -3 176 10 569 6 654 -6 40 -6 121 -14 180 -17 58 -3
147 -10 196 -15 50 -6 207 -12 350 -14 143 -3 292 -10 330 -16 39 -6 158 -12
265 -14 109 -2 210 -9 230 -15 21 -7 102 -11 202 -11 92 0 230 -4 305 -9 76
-6 197 -13 268 -16 207 -9 297 -16 335 -25 53 -13 131 -20 280 -25 74 -3 149
-7 165 -10 17 -3 187 -8 379 -11 322 -5 503 -10 647 -18 96 -5 149 -59 149
-151 0 -51 -3 -59 -41 -100 -23 -25 -54 -48 -68 -52 -14 -3 -30 -9 -36 -13
-51 -37 -250 -33 -580 10 -33 4 -112 13 -175 19 -63 6 -158 17 -210 23 -52 6
-124 13 -160 15 -36 2 -162 10 -280 18 -118 9 -249 17 -290 20 -41 2 -149 9
-240 15 -91 6 -190 12 -220 14 -48 3 -118 13 -235 32 -57 9 -101 12 -245 18
-80 4 -181 11 -225 15 -44 5 -161 10 -260 11 -99 0 -220 5 -270 10 -49 5 -148
12 -220 15 -71 4 -152 8 -180 10 -90 6 -237 13 -405 20 -91 3 -199 10 -240 15
-41 5 -113 12 -160 15 -47 4 -129 13 -182 21 -54 8 -119 14 -146 14 -26 0 -52
4 -57 9 -14 12 -622 34 -970 35 -175 0 -490 -13 -512 -21 -47 -17 -82 -98 -85
-193 -3 -93 11 -288 22 -315 4 -11 13 -34 20 -52 17 -45 47 -53 180 -49 63 1
194 0 290 -5 263 -11 625 -28 715 -34 44 -2 150 -7 235 -11 85 -3 229 -14 320
-24 91 -11 218 -20 283 -21 65 0 161 -8 215 -16 53 -8 196 -18 317 -23 121 -4
279 -14 350 -23 89 -11 261 -18 540 -22 226 -3 448 -8 495 -10 47 -2 189 -6
315 -10 127 -3 262 -8 300 -10 39 -3 174 -7 300 -10 127 -3 237 -8 245 -10 8
-2 96 -7 195 -10 99 -2 216 -7 260 -10 44 -2 222 -7 395 -11 332 -6 356 -9
396 -55 36 -41 47 -84 41 -157 -10 -121 -53 -208 -118 -238 -31 -13 -61 -15
-180 -11 -149 5 -331 21 -410 37 -27 5 -72 5 -107 0 -35 -5 -102 -5 -155 0
-50 5 -184 11 -297 15 -386 10 -525 15 -720 25 -107 5 -245 12 -307 14 -62 2
-116 7 -122 10 -5 3 -73 8 -152 12 -79 3 -168 9 -197 13 -30 5 -122 9 -205 11
-162 2 -211 5 -267 14 -117 20 -247 28 -495 32 -154 2 -309 6 -345 9 -36 3
-146 7 -245 10 -99 3 -223 10 -275 15 -104 10 -312 26 -460 35 -179 10 -265
17 -271 21 -6 3 -27 5 -209 19 -75 5 -333 8 -530 5 -58 -1 -157 4 -220 10
-120 12 -273 13 -325 2 -16 -3 -148 -6 -292 -6 -163 -1 -266 -5 -272 -11 -6
-6 -10 -24 -10 -40 3 -214 6 -273 14 -287 13 -21 120 -30 499 -43 87 -3 162
-7 166 -10 5 -3 55 -8 112 -10 57 -3 114 -7 128 -10 14 -2 61 -7 105 -10 104
-9 274 -33 289 -43 6 -4 79 -10 161 -13 83 -4 220 -12 305 -18 195 -14 514
-30 690 -36 74 -3 164 -7 200 -9 36 -3 139 -8 230 -11 91 -3 239 -14 330 -25
385 -44 462 -51 600 -54 80 -2 156 -6 170 -10 36 -9 78 -9 130 1 52 10 208 10
495 0 110 -4 337 -12 505 -18 341 -11 469 -17 520 -23 19 -2 87 -5 150 -6 222
-5 637 -43 933 -85 252 -37 295 -69 317 -238 14 -107 12 -213 -4 -252 -21 -48
-70 -77 -121 -70 -22 2 -132 7 -245 10 -113 3 -227 7 -255 10 -192 18 -520 35
-657 35 -73 -1 -148 4 -166 9 -18 6 -102 12 -185 15 -159 6 -350 15 -427 21
-78 6 -426 25 -665 36 -283 13 -340 17 -435 29 -41 5 -172 14 -290 20 -118 6
-249 14 -290 19 -41 4 -183 9 -315 10 -228 2 -343 10 -410 30 -51 16 -120 20
-420 26 -538 10 -705 16 -935 33 -74 6 -279 14 -455 17 -176 4 -365 10 -420
14 -55 5 -217 9 -360 10 -143 1 -312 6 -375 11 -63 5 -145 10 -182 10 -76 0
-158 -18 -158 -35 0 -15 -33 -15 -43 -1 -5 6 -5 -8 -2 -31 5 -34 4 -43 -8 -43
-10 0 -13 8 -9 25 3 18 0 25 -12 25 -13 0 -15 -6 -10 -27 4 -16 13 -35 20 -44
18 -21 18 -50 0 -43 -8 3 -17 1 -21 -5 -3 -6 -3 -11 2 -11 4 0 9 -21 11 -47 4
-56 12 -74 24 -47 5 12 6 3 2 -23 -5 -39 -3 -44 35 -82 23 -23 50 -41 61 -41
17 0 20 -7 20 -40 0 -25 -5 -40 -12 -40 -7 0 -4 -6 7 -12 29 -16 29 -16 15
-33 -10 -12 -8 -16 11 -24 21 -9 22 -10 4 -11 -18 -1 -19 -1 -2 -11 9 -5 17
-21 17 -34 0 -18 5 -25 20 -25 17 0 19 -3 10 -19 -17 -32 -12 -40 33 -52 23
-6 47 -15 53 -20 14 -11 287 -46 429 -54 174 -9 253 -15 360 -25 55 -5 174
-12 265 -15 91 -3 226 -10 300 -15 146 -10 352 -17 750 -26 145 -3 270 -10
290 -17 22 -7 141 -11 320 -13 182 -1 336 -7 425 -17 77 -9 212 -18 300 -22
411 -16 635 -25 695 -29 36 -2 173 -9 305 -15 132 -6 269 -13 305 -16 74 -4
376 -20 685 -35 116 -6 266 -15 335 -20 343 -26 417 -30 565 -35 88 -3 223 -9
300 -15 77 -5 208 -12 290 -15 459 -15 461 -15 619 -46 110 -21 210 -124 237
-245 7 -30 17 -58 22 -61 20 -12 221 -2 253 13 43 20 46 41 22 127 -21 74 -44
109 -89 132 -47 25 -253 73 -335 79 -45 4 -99 12 -120 20 -55 19 -95 72 -109
148 -13 72 -9 276 7 295 5 7 7 16 4 22 -4 5 0 29 8 53 8 24 21 68 30 98 34
122 54 131 267 120 90 -5 188 -14 216 -19 62 -12 158 2 187 27 25 23 46 66 46
96 0 37 -29 140 -40 144 -6 2 -10 9 -10 16 0 22 -31 76 -43 76 -16 1 -57 36
-57 49 0 6 -14 11 -30 11 -17 0 -47 7 -67 15 -46 19 -91 19 -139 -1 -54 -23
-143 -14 -183 18 -40 32 -66 92 -65 152 1 61 30 206 44 220 5 5 10 17 10 26 0
25 46 67 94 85 40 15 68 17 213 11 267 -11 358 -8 420 15 60 23 78 46 64 82
-11 28 -46 43 -116 52 -53 6 -174 30 -215 43 -87 25 -149 148 -157 311 -7 144
2 191 50 264 58 86 83 96 231 98 112 1 166 11 166 31 0 11 -53 60 -94 89 -40
27 -109 128 -126 184 -7 22 -17 45 -21 51 -5 6 -12 39 -15 72 -11 99 34 205
111 262 116 87 135 104 135 119 0 10 -10 37 -21 61 -49 100 -37 240 27 326 49
66 115 132 145 144 16 7 26 16 23 21 -3 5 2 9 10 9 9 0 16 4 16 10 0 15 69 55
130 75 30 10 63 24 73 33 22 20 22 67 -2 100 -45 66 -64 142 -67 271 -3 138
-12 234 -26 271 -5 13 -26 39 -46 57 -42 37 -54 39 -317 53 -99 5 -229 14
-290 19 -60 6 -272 15 -470 21 -198 5 -472 14 -610 19 -137 5 -331 12 -430 15
-99 3 -243 10 -320 15 -77 6 -207 12 -290 16 -386 14 -675 26 -707 30 -32 4
-374 21 -668 35 -113 5 -304 9 -425 9 -121 1 -314 3 -430 5 -115 2 -224 2
-241 0z m-3644 -3934 c0 -5 -4 -10 -10 -10 -5 0 -10 5 -10 10 0 6 5 10 10 10
6 0 10 -4 10 -10z"/>
<path d="M3760 7710 c0 -5 5 -10 10 -10 6 0 10 5 10 10 0 6 -4 10 -10 10 -5 0
-10 -4 -10 -10z"/>
<path d="M3095 6822 c-78 -6 -116 -14 -129 -27 -20 -20 -32 -362 -16 -475 6
-47 16 -90 22 -97 11 -14 39 -18 243 -33 83 -6 188 -15 235 -20 47 -5 173 -17
280 -25 107 -9 332 -27 500 -40 332 -26 545 -42 685 -50 161 -9 269 -15 345
-21 41 -3 167 -9 280 -14 113 -6 277 -14 365 -19 88 -6 293 -17 455 -25 162
-8 340 -18 395 -20 55 -3 156 -8 225 -12 69 -3 224 -12 345 -19 121 -7 283
-16 360 -19 77 -3 163 -8 190 -11 28 -2 104 -7 170 -10 66 -3 221 -12 345 -20
124 -8 338 -21 475 -30 138 -8 282 -18 320 -20 39 -3 214 -14 390 -25 176 -12
421 -27 545 -35 124 -8 351 -22 505 -30 154 -8 292 -17 307 -20 14 -2 131 -7
260 -10 128 -4 255 -11 281 -16 26 -5 68 -9 91 -9 29 0 52 -7 67 -20 14 -12
17 -18 8 -14 -24 8 -31 -33 -13 -72 9 -18 15 -41 13 -51 -1 -10 3 -29 8 -43 6
-14 7 -37 2 -53 -9 -31 -9 -32 -9 -51 0 -8 -8 -17 -17 -19 -13 -3 -11 -5 6 -6
16 -1 21 -5 17 -16 -3 -8 -2 -14 2 -12 4 1 9 -2 10 -8 2 -5 8 -16 14 -23 15
-18 2 -27 -38 -27 -20 0 -34 5 -34 13 0 6 -7 12 -16 12 -14 0 -14 -3 -4 -15
10 -12 10 -19 2 -27 -18 -18 -14 -30 7 -19 12 7 30 7 54 0 33 -9 35 -12 26
-33 -7 -16 -20 -24 -36 -23 -21 0 -24 3 -20 23 3 18 0 24 -15 24 -10 0 -22 -8
-25 -17 -4 -10 -12 -22 -20 -26 -24 -15 -14 -26 20 -21 26 4 35 0 50 -21 12
-16 16 -33 12 -46 -6 -19 -12 -20 -49 -15 -82 14 -192 27 -261 31 -38 3 -81 7
-95 10 -34 6 -159 14 -137 8 9 -2 17 -8 17 -13 0 -10 -83 0 -91 12 -6 10 -38
15 -165 24 -74 5 -98 3 -124 -9 -25 -13 -31 -14 -27 -3 4 9 -3 16 -16 19 -44
11 -153 10 -174 -1 -30 -16 -43 -15 -37 3 5 12 0 15 -22 14 -16 -1 -82 2 -146
5 -65 4 -119 3 -122 -2 -6 -10 -56 -4 -56 7 0 7 -18 10 -70 10 -19 0 -62 0
-95 1 -33 0 -91 1 -130 2 -38 0 -72 4 -75 7 -7 11 -173 30 -211 26 -18 -3 -38
0 -44 5 -6 5 -31 7 -55 5 -25 -1 -70 1 -100 5 -30 5 -118 11 -194 15 -77 3
-143 8 -147 11 -4 2 -58 6 -119 9 -62 2 -115 6 -118 9 -3 3 2 6 11 6 10 0 17
5 17 11 0 7 -6 8 -17 3 -23 -11 -194 -11 -348 0 -66 4 -151 9 -188 11 -38 2
-71 5 -74 8 -3 3 -11 3 -19 0 -8 -3 -21 0 -29 7 -12 10 -21 10 -40 2 -14 -7
-25 -8 -25 -3 0 5 -24 8 -52 7 -30 -2 -57 2 -61 8 -6 8 -10 7 -14 -1 -6 -15
-33 -17 -33 -3 0 5 -10 9 -22 9 -13 0 -77 2 -143 6 -66 4 -148 8 -182 9 -33 0
-59 4 -56 9 2 4 -1 7 -6 7 -6 0 -11 -5 -11 -11 0 -8 -4 -8 -12 -1 -7 6 -46 9
-86 8 -40 -1 -75 0 -77 2 -2 3 -35 6 -72 7 -64 3 -240 13 -310 19 -18 1 -33
-1 -33 -5 0 -4 -9 -9 -21 -12 -17 -5 -18 -3 -8 9 11 13 5 15 -42 15 -135 -2
-391 8 -397 15 -4 4 1 4 10 1 10 -3 20 -2 23 2 3 5 -46 9 -108 9 -156 -1 -177
1 -177 12 0 6 10 15 23 20 l22 9 -23 0 c-15 1 -26 -6 -29 -18 -4 -16 -12 -18
-56 -15 -43 3 -130 8 -284 18 -13 0 -23 3 -23 6 0 3 -24 4 -52 3 -36 -2 -46 0
-33 6 17 7 16 8 -10 14 -21 4 -34 1 -42 -10 -8 -11 -31 -17 -65 -18 -58 -2
-78 2 -78 17 0 5 6 6 12 2 17 -11 48 -13 76 -7 42 10 22 18 -48 19 -38 1 -67
-2 -65 -7 3 -4 -34 -5 -82 -3 -388 18 -878 45 -973 54 -63 5 -161 13 -217 16
-56 4 -101 10 -99 13 2 3 -28 6 -67 6 -68 1 -398 24 -642 45 -60 5 -148 12
-195 15 -47 3 -161 10 -255 16 -151 10 -260 15 -378 18 -25 1 -43 8 -55 22 -9
12 -22 26 -28 33 -16 15 44 35 134 42 75 7 97 26 45 39 -15 3 -30 10 -33 15
-3 4 -28 10 -56 13 -28 3 -65 12 -83 22 -34 17 -127 18 -124 0 1 -5 22 -17 47
-26 25 -8 49 -19 53 -24 5 -4 3 -6 -2 -2 -6 3 -17 2 -24 -2 -10 -6 -9 -11 3
-24 22 -22 21 -50 -1 -43 -19 5 -67 9 -95 7 -20 -1 -48 -28 -48 -46 0 -8 12
-15 28 -17 54 -6 -10 -27 -94 -30 l-79 -3 1 -80 c0 -44 4 -116 8 -160 5 -44 9
-96 10 -115 1 -19 5 -48 9 -65 5 -20 -1 -53 -17 -100 -16 -47 -21 -76 -16 -91
5 -12 4 -39 -1 -60 -14 -64 -12 -74 19 -74 34 0 62 -17 46 -27 -21 -15 -12
-43 13 -43 13 0 23 -4 23 -10 0 -5 7 -10 15 -10 8 0 15 4 15 9 0 6 9 9 19 8
11 0 17 -5 15 -9 -3 -4 0 -8 5 -8 6 0 11 -8 11 -17 0 -15 -1 -15 -13 1 -12 16
-14 16 -26 3 -11 -14 -17 -14 -51 -2 -21 7 -47 11 -58 8 -11 -2 -35 0 -55 5
-36 10 -61 0 -102 -41 -13 -14 -20 -15 -31 -6 -12 9 -13 9 -9 -3 4 -9 -5 -28
-19 -44 -21 -24 -25 -26 -26 -11 0 10 7 25 15 33 8 9 15 24 15 35 0 10 3 18 8
18 21 -4 32 3 32 20 0 39 -42 49 -61 15 -7 -13 -16 -24 -21 -24 -5 0 -6 4 -3
10 3 6 -1 7 -9 4 -10 -4 -17 -20 -17 -43 -1 -20 -2 -43 -3 -51 -3 -31 -41 -86
-93 -135 -60 -55 -86 -103 -81 -151 1 -19 -4 -38 -15 -48 -9 -10 -17 -22 -17
-27 0 -6 -25 -35 -55 -64 -33 -33 -61 -71 -70 -97 -17 -49 -34 -185 -37 -305
-2 -54 -7 -83 -14 -83 -12 0 -28 -46 -20 -58 2 -4 -4 -19 -15 -32 -16 -21 -20
-23 -29 -10 -9 13 -10 13 -10 0 0 -10 -11 -17 -29 -18 -25 -2 -28 1 -24 18 3
11 11 20 18 20 7 0 15 7 19 15 3 8 1 15 -4 15 -6 0 -10 -4 -10 -10 0 -5 -5
-10 -11 -10 -6 0 -9 7 -5 15 3 8 1 15 -3 15 -11 0 -21 -25 -21 -49 0 -10 -10
-23 -22 -29 -22 -10 -22 -11 7 -12 29 -1 29 -2 8 -12 -37 -18 -26 -28 28 -24
30 2 54 9 60 17 7 11 9 11 9 0 0 -7 12 -22 26 -33 16 -13 23 -26 19 -36 -3 -9
-8 -120 -10 -247 -3 -126 -8 -243 -13 -259 -13 -48 7 -195 35 -249 35 -70 57
-77 271 -81 193 -4 287 -13 316 -28 11 -6 83 -14 160 -19 78 -4 173 -13 211
-19 57 -9 90 -8 174 6 113 18 188 15 261 -11 24 -9 76 -20 115 -25 93 -13 204
-41 211 -52 3 -5 0 -9 -7 -7 -30 4 -41 -1 -35 -16 3 -8 0 -15 -6 -15 -7 0 -8
-15 -4 -42 l6 -43 -20 24 c-23 27 -28 25 -33 -9 -2 -12 -11 -28 -20 -35 -22
-16 -21 -32 3 -47 22 -14 26 -34 9 -40 -7 -2 -9 -13 -4 -28 l7 -23 14 24 c12
21 20 14 15 -14 -1 -8 45 1 72 15 23 12 37 1 17 -12 -10 -7 1 -10 38 -10 47 0
52 2 53 23 4 55 -4 89 -29 117 -29 33 -55 40 -46 13 5 -14 4 -15 -4 -4 -6 8
-8 20 -5 28 6 15 39 18 48 3 10 -15 35 -12 35 5 0 8 -7 15 -16 15 -22 0 -11
25 12 26 10 1 34 2 52 3 18 0 32 6 32 14 0 8 14 11 44 9 37 -3 44 -7 38 -20
-5 -15 -4 -15 11 -3 16 13 43 12 112 -5 17 -4 32 -11 35 -15 3 -4 41 -10 85
-13 49 -2 70 -1 55 4 -17 6 -20 8 -7 9 10 1 33 -6 52 -13 23 -10 35 -11 35 -4
0 7 4 7 13 0 7 -6 24 -9 38 -6 13 2 18 2 12 -2 -7 -3 -13 -12 -13 -21 0 -11 7
-13 28 -8 26 5 28 4 30 -31 2 -21 -2 -41 -9 -44 -7 -5 0 -14 20 -26 33 -19 43
-41 14 -29 -10 4 -24 9 -31 12 -8 3 -10 0 -6 -11 3 -9 3 -36 0 -60 -6 -37 -13
-48 -42 -65 -20 -12 -39 -19 -44 -16 -4 3 -16 2 -25 -2 -15 -5 -15 -8 6 -24
13 -10 32 -19 42 -19 9 0 17 -7 17 -15 0 -9 11 -20 25 -25 24 -9 29 -19 26
-47 -1 -8 5 -10 15 -6 23 9 14 -17 -11 -31 -11 -6 -25 -17 -33 -24 -11 -10
-11 -12 0 -12 8 0 6 -5 -5 -11 -13 -8 -22 -7 -34 3 -15 11 -16 11 -10 -5 6
-17 2 -18 -51 -12 -31 4 -65 14 -75 23 -9 8 -20 12 -23 9 -4 -3 -14 3 -24 15
-13 17 -29 22 -70 23 -40 1 -55 6 -63 21 -10 18 -11 18 -18 -6 -7 -24 -7 -24
-8 -2 -1 21 -5 22 -76 20 -45 -1 -75 -6 -75 -12 0 -7 -3 -6 -8 1 -11 18 -87
19 -108 2 -12 -10 -43 -14 -105 -14 -67 0 -92 -4 -106 -17 -12 -11 -23 -14
-33 -8 -18 11 -31 3 -23 -15 3 -8 0 -15 -6 -15 -6 0 -11 -6 -11 -14 0 -10 -25
-15 -95 -20 -52 -4 -99 -5 -103 -2 -5 3 -24 8 -43 11 -19 3 -35 10 -37 16 -2
5 -24 9 -48 9 -24 0 -44 4 -44 8 0 4 -12 9 -27 10 -15 1 -39 13 -53 27 -19 18
-39 26 -76 28 -27 2 -54 6 -59 9 -27 16 -455 12 -455 -5 0 -4 -14 0 -31 9 -35
18 -142 22 -162 6 -10 -9 -88 -26 -205 -46 -26 -5 -51 2 -106 29 -44 21 -88
35 -111 35 -65 0 -166 21 -172 36 -3 8 -11 14 -19 14 -8 0 -14 4 -14 10 0 21
-52 41 -140 54 -88 14 -94 13 -114 -5 -17 -16 -23 -17 -31 -7 -12 16 -43 12
-67 -9 -14 -12 -17 -31 -16 -87 2 -68 0 -75 -32 -114 -18 -23 -38 -42 -44 -42
-6 0 -4 -4 4 -10 23 -14 -13 -24 -66 -16 -24 3 -65 3 -90 -1 -38 -5 -45 -9
-41 -24 3 -11 1 -21 -4 -25 -5 -3 -14 -15 -20 -27 -7 -12 -8 -19 -4 -15 13 13
37 -13 25 -27 -7 -8 -2 -11 18 -8 15 2 38 -2 51 -9 27 -15 56 -84 39 -94 -7
-4 -7 -9 1 -13 18 -11 -28 -54 -51 -48 -14 4 -18 2 -14 -10 3 -8 6 -21 6 -28
0 -8 9 -17 20 -20 11 -3 20 -13 20 -20 0 -8 6 -18 13 -22 6 -4 27 -26 46 -47
32 -38 33 -42 27 -97 -4 -44 -2 -58 9 -63 8 -3 13 -13 11 -23 -15 -81 -19
-110 -17 -126 1 -9 -6 -29 -17 -45 -11 -15 -25 -44 -31 -64 -7 -20 -21 -40
-31 -43 -38 -12 -43 -31 -14 -62 34 -37 44 -64 44 -124 0 -27 5 -49 10 -49 6
0 10 -5 10 -11 0 -6 11 -25 24 -42 12 -18 47 -81 77 -140 36 -73 63 -116 84
-130 16 -11 45 -36 63 -54 18 -18 37 -33 43 -33 5 0 21 -7 35 -16 17 -12 38
-15 69 -12 56 7 109 -16 153 -66 17 -20 32 -41 32 -46 0 -6 6 -10 14 -10 8 0
29 -12 46 -26 28 -24 35 -26 67 -16 28 8 42 8 62 -2 14 -7 44 -16 66 -19 21
-4 51 -15 65 -25 34 -25 86 -42 128 -42 21 0 40 -7 47 -17 8 -10 25 -16 46
-15 112 5 274 -1 394 -14 28 -3 63 -15 80 -27 20 -14 45 -21 77 -22 25 0 50
-3 54 -7 4 -4 2285 -8 5068 -8 l5062 0 3 92 c5 141 5 242 -1 633 -3 197 -4
365 -1 372 3 7 11 13 18 13 8 0 11 8 8 18 -4 16 0 18 26 14 41 -6 41 16 1 25
-20 3 -30 12 -30 23 0 10 -6 23 -14 29 -7 6 -16 29 -20 51 -9 60 -49 143 -91
189 -21 23 -36 43 -34 45 5 3 72 31 79 31 3 1 32 9 65 19 46 14 81 17 153 14
l92 -5 0 403 0 403 -22 12 c-13 7 -39 16 -58 20 -19 4 -80 24 -135 44 -55 20
-149 53 -210 72 -115 37 -165 58 -178 77 -4 6 -7 38 -8 71 0 33 -3 111 -6 172
-4 103 -3 115 17 142 18 26 19 34 8 53 -12 23 -21 371 -10 392 3 5 4 44 3 86
l-2 77 70 7 c59 6 73 11 83 29 7 12 11 30 9 40 -1 10 4 26 12 35 9 10 20 51
26 92 5 41 13 88 17 103 3 16 2 38 -4 50 -20 42 -20 80 -1 116 10 20 19 41 19
48 0 26 -48 55 -130 79 -47 14 -105 34 -130 44 -48 21 -104 37 -270 77 -58 14
-120 31 -138 39 -18 8 -40 14 -48 14 -14 0 -15 6 -8 38 5 20 10 172 11 337 1
165 3 318 5 340 l3 40 140 0 c77 0 224 -4 326 -9 l187 -9 15 24 c9 13 19 53
23 89 5 53 2 77 -16 130 -47 142 -108 211 -202 231 -43 10 -188 53 -371 112
-65 20 -102 38 -109 50 -13 24 -12 79 2 337 23 400 23 407 4 414 -10 4 -88 6
-174 5 -418 -7 -559 -4 -1140 20 -140 6 -363 16 -495 21 -384 16 -781 44 -856
61 -27 6 -186 10 -380 9 -184 0 -433 4 -554 10 -448 20 -813 32 -915 30 -131
-3 -120 -4 -505 3 -176 4 -412 13 -525 22 -113 9 -254 18 -315 20 -60 3 -186
8 -280 11 -93 4 -249 8 -345 9 -158 1 -384 10 -530 20 -30 2 -109 6 -175 10
-66 3 -140 8 -165 10 -25 2 -117 9 -205 15 -88 6 -218 15 -290 20 -71 6 -242
15 -380 21 -137 5 -277 13 -310 17 -33 4 -73 6 -90 4z m-585 -1072 c0 -5 -4
-10 -10 -10 -5 0 -10 5 -10 10 0 6 5 10 10 10 6 0 10 -4 10 -10z m3180 -290
c0 -5 -4 -10 -10 -10 -5 0 -10 5 -10 10 0 6 5 10 10 10 6 0 10 -4 10 -10z
m5993 -227 c-7 -2 -19 -2 -25 0 -7 3 -2 5 12 5 14 0 19 -2 13 -5z m-9406 -380
c-15 -16 -17 -16 -17 -1 0 9 6 18 13 21 20 7 22 -2 4 -20z m37 -14 c-3 -5 -10
-7 -15 -3 -5 3 -7 10 -3 15 3 5 10 7 15 3 5 -3 7 -10 3 -15z m76 17 c0 -9 -40
-13 -46 -5 -3 5 6 9 20 9 14 0 26 -2 26 -4z m80 -15 c0 -4 -11 -6 -24 -4 -13
3 -27 0 -30 -6 -4 -6 -12 -11 -18 -11 -7 0 -6 6 2 15 13 16 70 21 70 6z m60
-11 c0 -12 -8 -12 -35 0 -18 8 -17 9 8 9 15 1 27 -3 27 -9z m208 -16 c75 -9
138 -17 140 -19 3 -3 3 -28 0 -57 -1 -10 -9 -18 -18 -18 -13 0 -16 9 -15 35 0
25 -3 34 -12 31 -7 -3 -13 -1 -13 4 0 15 -40 12 -56 -5 -21 -21 -35 -19 -41 6
-4 15 -11 19 -24 15 -58 -18 -62 -19 -56 -9 5 7 0 9 -12 6 -11 -3 -22 -11 -25
-19 -6 -16 -86 -20 -86 -4 0 6 8 11 18 11 9 1 22 2 27 4 6 1 16 3 23 3 20 3
13 20 -10 25 l-23 4 23 2 c13 0 85 -6 160 -15z m-338 -24 c-12 -23 -30 -27
-30 -7 0 17 10 27 27 27 11 0 11 -5 3 -20z m104 -11 c-9 -15 -20 -10 -20 10 0
15 3 17 13 9 7 -6 10 -14 7 -19z m463 -10 c1 -22 -2 -26 -18 -22 -10 3 -19 12
-19 20 0 8 -4 12 -9 9 -5 -3 -12 1 -15 10 -5 12 1 15 26 12 27 -2 33 -7 35
-29z m248 5 c57 -4 82 -10 91 -22 7 -9 16 -13 20 -9 5 4 2 12 -6 17 -10 7 0 8
30 5 25 -2 71 -7 103 -11 31 -3 55 -9 52 -14 -3 -4 -21 -4 -40 0 -23 5 -37 4
-42 -3 -4 -6 -1 -13 6 -15 20 -7 -21 -31 -53 -32 -24 0 -27 2 -16 15 11 13 8
13 -19 4 -17 -6 -31 -14 -31 -18 0 -4 16 -16 37 -27 41 -22 44 -36 8 -46 -24
-6 -30 0 -26 30 1 6 -2 12 -8 12 -5 0 -17 3 -27 7 -15 6 -16 1 -12 -40 4 -36
2 -47 -8 -47 -9 0 -14 12 -14 35 0 46 -23 38 -40 -15 -7 -22 -20 -41 -29 -43
-14 -4 -14 -5 0 -6 9 0 22 6 29 14 19 23 32 18 28 -12 -2 -19 -8 -27 -18 -24
-16 4 -37 5 -57 2 -7 0 -13 -8 -13 -17 0 -8 -4 -12 -10 -9 -15 9 -12 42 5 49
22 8 18 21 -11 37 -25 13 -28 12 -49 -15 -22 -28 -23 -28 -30 -7 -7 24 -25 28
-25 6 0 -8 -6 -15 -14 -15 -19 0 -30 -32 -14 -41 9 -6 8 -10 -6 -15 -11 -4
-21 -2 -27 7 -8 12 -13 6 -11 -12 2 -9 -66 -21 -77 -15 -14 9 -22 -24 -11 -45
9 -15 7 -19 -5 -19 -9 0 -13 -4 -10 -10 5 -9 -24 -15 -49 -11 -5 1 -13 -4 -19
-11 -6 -9 -7 -8 -3 5 7 22 -2 22 -26 0 -14 -13 -21 -14 -30 -5 -9 9 -17 7 -35
-10 l-24 -22 -25 27 c-29 31 -36 34 -27 10 5 -13 2 -15 -11 -10 -10 4 -22 7
-27 7 -6 0 -7 5 -4 10 9 14 -8 13 -23 -2 -9 -9 -12 -8 -12 4 0 9 -6 19 -12 22
-7 3 -3 3 9 0 18 -4 20 -2 15 18 -5 21 -4 22 13 8 17 -14 18 -13 13 5 -4 16 0
21 16 20 12 0 26 -4 33 -8 6 -4 14 -3 18 3 3 5 1 10 -6 10 -8 0 -8 4 1 15 7 8
15 13 19 11 4 -3 13 -1 21 4 16 10 24 50 10 50 -6 0 -10 5 -10 10 0 6 7 10 15
10 14 0 20 21 17 61 -1 12 7 15 31 14 42 -3 83 9 80 24 -2 6 6 11 17 11 30 0
13 -30 -21 -37 -16 -3 -29 -9 -29 -14 0 -16 45 -38 67 -33 22 6 41 34 23 34
-6 0 -10 9 -10 19 0 17 5 19 35 14 20 -3 35 -1 35 4 0 6 12 27 26 48 14 21 23
44 19 52 -4 13 6 14 67 9 40 -3 109 -9 153 -12z m-410 -20 c-15 -15 -35 -19
-35 -6 0 15 22 30 36 25 11 -4 11 -7 -1 -19z m-285 -14 c0 -11 7 -23 15 -26
22 -9 18 -24 -5 -24 -21 0 -45 43 -34 61 10 16 24 10 24 -11z m1070 0 c12 -8
9 -10 -12 -10 -16 0 -28 5 -28 10 0 13 20 13 40 0z m87 -6 c-3 -3 -12 -4 -19
-1 -8 3 -5 6 6 6 11 1 17 -2 13 -5z m-1237 -14 c0 -13 -11 -13 -30 0 -12 8
-11 10 8 10 12 0 22 -4 22 -10z m1479 -6 c3 -3 1 -8 -4 -12 -6 -4 -16 -20 -23
-35 -8 -20 -17 -27 -28 -23 -8 3 -12 2 -9 -3 3 -5 1 -12 -5 -16 -5 -3 -10 3
-10 14 0 22 -24 27 -92 22 -32 -3 -76 23 -59 34 6 3 19 4 29 1 25 -8 152 -10
159 -2 11 11 -3 16 -63 26 -58 9 -58 9 20 5 44 -3 82 -8 85 -11z m-419 -4 c0
-5 -4 -10 -10 -10 -5 0 -10 5 -10 10 0 6 5 10 10 10 6 0 10 -4 10 -10z m145 0
c-3 -5 -21 -9 -38 -9 l-32 2 35 7 c19 4 36 8 38 9 2 0 0 -3 -3 -9z m305 6 c0
-3 -4 -8 -10 -11 -5 -3 -10 -1 -10 4 0 6 5 11 10 11 6 0 10 -2 10 -4z m118 -6
c36 0 51 -4 50 -12 -2 -8 10 -14 30 -16 18 -2 30 -8 27 -13 -7 -11 10 -10 45
1 23 7 23 8 3 9 -12 1 -25 6 -28 12 -5 7 12 9 52 5 32 -3 103 -8 158 -12 172
-11 301 -23 475 -43 47 -6 126 -13 175 -16 384 -23 645 -64 645 -101 0 -8 -4
-12 -10 -9 -5 3 -10 1 -10 -4 0 -14 -107 -15 -115 -1 -4 6 -32 8 -67 6 -34 -2
-56 -1 -49 3 7 5 -47 7 -118 6 -72 -2 -131 1 -131 6 0 15 -47 10 -60 -6 -10
-12 -10 -18 0 -30 7 -8 18 -15 25 -15 8 0 15 -5 17 -11 3 -9 10 -9 27 0 18 10
26 10 39 -2 11 -10 29 -13 51 -10 38 6 54 -9 46 -44 -4 -16 3 -26 29 -42 25
-16 33 -27 29 -41 -4 -16 -14 -20 -44 -20 -21 0 -41 5 -45 11 -3 6 -15 9 -25
6 -11 -3 -17 -1 -13 4 3 5 0 9 -5 9 -6 0 -11 -7 -11 -16 0 -8 -7 -22 -15 -30
-8 -9 -15 -24 -15 -35 0 -18 -24 -27 -33 -11 -2 4 -2 1 -1 -5 4 -14 -6 -16
-30 -7 -8 3 -12 12 -9 21 5 12 1 14 -15 8 -16 -4 -22 -2 -22 8 0 10 -7 13 -21
10 -14 -4 -22 0 -25 13 -3 11 -18 28 -34 39 -16 11 -26 23 -23 28 3 4 -4 11
-16 14 -29 7 -16 23 20 23 18 0 28 5 26 13 -1 8 9 11 31 11 38 -2 43 11 7 20
-14 4 -25 13 -25 21 0 8 -7 15 -15 15 -8 0 -15 9 -15 20 0 19 -1 20 -24 5 -22
-15 -26 -14 -60 6 -21 12 -56 23 -79 25 -27 2 -48 11 -58 24 -17 19 -17 19
-32 -3 -13 -18 -16 -19 -16 -5 -1 21 -53 18 -59 -3 -11 -43 -13 -44 -22 -29
-8 12 -10 10 -10 -7 0 -13 4 -23 10 -23 5 0 2 -9 -7 -20 -12 -13 -24 -18 -40
-14 -35 9 -77 -4 -64 -19 6 -8 6 -18 1 -27 -7 -10 -10 -11 -10 -2 0 7 -13 12
-30 12 -16 0 -30 5 -30 10 0 14 -60 39 -77 33 -7 -3 -13 1 -13 8 0 11 -3 11
-10 -1 -9 -13 -10 -13 -10 0 -1 9 -6 6 -16 -10 l-15 -25 4 27 c2 15 0 25 -4
22 -5 -3 -9 -17 -9 -32 0 -49 -30 -63 -62 -29 -12 13 -17 15 -21 5 -2 -7 -8
-10 -12 -6 -5 5 -3 19 3 32 9 19 8 25 -4 30 -8 3 -14 1 -14 -4 0 -5 -10 -15
-22 -21 -30 -16 -52 12 -36 47 15 32 4 40 -26 21 -26 -17 -36 -13 -36 14 0 30
53 34 72 5 5 -8 14 -7 28 2 15 9 20 9 20 0 0 -9 3 -9 11 -1 7 7 9 20 5 30 -6
15 -8 15 -16 3 -8 -13 -14 -12 -44 4 -33 17 -34 20 -18 32 9 7 30 14 45 14 32
0 33 23 1 28 -16 3 -16 1 -4 -7 11 -8 3 -11 -34 -11 -27 0 -47 -3 -43 -6 7 -7
-29 -44 -44 -44 -5 0 -7 5 -4 10 3 6 -5 10 -19 10 -32 0 -42 15 -19 30 17 11
17 11 0 6 -10 -3 -22 -6 -27 -6 -5 0 -12 -15 -16 -32 -4 -18 -9 -27 -11 -21
-3 9 -14 11 -31 6 -26 -6 -26 -5 -10 13 14 16 16 31 11 68 -5 48 -5 49 18 43
13 -4 48 -7 77 -7z m-1288 -20 c0 -5 -5 -10 -11 -10 -5 0 -7 5 -4 10 3 6 8 10
11 10 2 0 4 -4 4 -10z m790 0 c0 -5 -7 -10 -15 -10 -8 0 -15 5 -15 10 0 6 7
10 15 10 8 0 15 -4 15 -10z m587 4 c-3 -3 -12 -4 -19 -1 -8 3 -5 6 6 6 11 1
17 -2 13 -5z m-1637 -30 c0 -9 -9 -18 -20 -21 -11 -3 -20 -10 -20 -16 0 -6 -3
-7 -6 -4 -8 8 23 57 36 57 6 0 10 -7 10 -16z m1050 -15 c0 -6 -4 -7 -10 -4 -5
3 -10 11 -10 16 0 6 5 7 10 4 6 -3 10 -11 10 -16z m-1640 -29 c0 -11 -4 -20
-10 -20 -5 0 -10 9 -10 20 0 11 5 20 10 20 6 0 10 -9 10 -20z m423 -12 c4 -10
8 -10 15 1 15 21 34 2 30 -31 -4 -21 -1 -27 9 -24 8 3 13 -2 13 -15 0 -11 7
-22 16 -26 8 -3 13 -11 10 -19 -3 -7 0 -15 7 -18 8 -3 8 -5 1 -5 -6 -1 -17 6
-24 14 -16 19 -30 19 -30 1 0 -8 14 -17 31 -21 19 -4 29 -12 25 -20 -2 -7 4
-15 15 -18 10 -3 19 -1 19 5 0 5 5 6 11 2 20 -12 -8 -27 -52 -28 -29 -1 -44
-6 -46 -16 -4 -13 -3 -13 7 0 9 11 13 12 17 2 2 -6 8 -10 13 -7 4 2 15 -3 23
-13 22 -24 11 -59 -19 -65 -28 -5 -34 0 -34 25 0 10 -4 18 -10 18 -5 0 -10 9
-10 19 0 14 -5 18 -20 14 -11 -3 -20 0 -20 6 0 6 -12 11 -26 11 -20 0 -25 4
-20 16 3 9 6 23 6 32 0 15 2 15 11 2 8 -11 9 -9 4 10 -11 39 -31 56 -48 41 -9
-6 -13 -21 -10 -32 6 -20 -25 -59 -46 -59 -19 0 -19 29 0 49 11 12 15 21 9 21
-5 0 0 11 12 25 12 14 28 25 35 25 17 0 53 59 46 76 -7 18 23 19 30 2z m1140
-2 c5 -12 13 -13 42 -5 28 8 39 7 51 -5 11 -11 33 -15 75 -14 42 1 63 -3 69
-12 7 -11 11 -11 24 -1 11 9 16 10 16 2 0 -6 5 -11 12 -11 9 0 9 3 0 12 -7 7
-12 20 -12 30 0 16 3 17 22 6 13 -7 28 -20 34 -28 11 -13 15 -12 36 8 27 25
58 29 58 8 0 -20 30 -42 53 -38 11 2 24 -2 29 -10 7 -10 11 -10 15 0 2 6 13
12 24 12 12 0 16 5 13 15 -4 8 -1 15 6 15 17 0 35 -22 37 -45 1 -11 6 -50 11
-86 7 -59 6 -66 -7 -61 -9 3 -19 10 -22 15 -11 15 -29 -2 -22 -20 5 -13 1 -12
-17 5 -29 27 -78 31 -72 6 1 -7 -12 -10 -35 -8 -73 4 -70 3 -53 14 11 7 5 10
-25 11 -22 1 -52 1 -67 0 -31 -2 -43 12 -29 37 7 13 6 19 -2 19 -7 1 -27 7
-45 14 -23 10 -35 10 -40 3 -4 -6 -15 -13 -24 -17 -19 -7 -24 -42 -8 -52 5 -3
12 6 16 20 4 17 11 24 20 21 8 -3 14 -1 14 3 0 5 9 7 20 4 22 -6 28 -33 8 -33
-9 0 -8 -4 2 -10 13 -8 12 -10 -5 -11 -11 -1 -25 -1 -32 0 -14 2 -36 -36 -28
-49 7 -12 -16 -25 -24 -13 -3 5 -14 12 -23 16 -21 7 -24 27 -5 27 6 0 4 5 -6
11 -22 13 -87 -9 -67 -21 7 -4 8 -10 3 -13 -13 -8 -56 70 -49 88 10 26 26 16
27 -17 l1 -33 7 29 c5 23 12 30 36 33 39 6 42 9 20 33 -9 10 -15 26 -12 35 4
9 1 15 -9 15 -10 0 -13 -7 -8 -24 6 -24 -10 -44 -21 -26 -3 5 -13 10 -22 10
-13 0 -14 -2 -2 -17 13 -15 11 -16 -11 -10 -14 4 -31 7 -37 7 -7 0 -13 5 -13
10 0 6 7 10 16 10 8 0 12 5 9 11 -4 6 -14 8 -22 5 -9 -4 -11 -2 -6 7 4 6 6 23
4 36 -2 15 1 21 8 17 6 -4 11 0 11 8 0 20 26 21 33 2z m-1243 -26 c0 -11 -7
-20 -15 -20 -13 0 -14 4 -5 20 6 11 13 20 15 20 3 0 5 -9 5 -20z m327 -52 c-3
-7 -5 -2 -5 12 0 14 2 19 5 13 2 -7 2 -19 0 -25z m474 13 c-8 -5 -10 -14 -6
-22 6 -11 5 -11 -5 -2 -11 10 -11 15 0 28 7 8 15 13 19 10 3 -3 -1 -10 -8 -14z
m229 9 c0 -5 -4 -10 -10 -10 -5 0 -10 5 -10 10 0 6 5 10 10 10 6 0 10 -4 10
-10z m95 -22 c14 -12 25 -28 25 -36 0 -10 7 -12 27 -7 16 4 25 3 20 -1 -9 -9
-107 -16 -126 -9 -10 4 -11 8 -1 20 7 8 10 21 7 29 -5 12 0 19 20 25 2 1 14
-9 28 -21z m-1139 -15 c-10 -10 -19 5 -10 18 6 11 8 11 12 0 2 -7 1 -15 -2
-18z m892 -13 c-3 -16 -1 -30 4 -30 4 0 8 -5 8 -11 0 -6 -10 -8 -22 -5 -13 3
-17 3 -10 0 27 -13 10 -20 -23 -10 -32 10 -34 12 -18 24 16 11 16 14 3 22 -13
8 -12 10 3 10 10 0 20 7 23 15 4 8 13 15 21 15 11 0 14 -8 11 -30z m2612 20
c0 -5 -4 -10 -10 -10 -5 0 -10 5 -10 10 0 6 5 10 10 10 6 0 10 -4 10 -10z m49
-3 c6 -8 8 -17 5 -20 -9 -8 -44 11 -44 23 0 15 26 12 39 -3z m-3169 -6 c0 -6
-4 -13 -10 -16 -5 -3 -10 1 -10 9 0 9 5 16 10 16 6 0 10 -4 10 -9z m3273 2
c-7 -2 -19 -2 -25 0 -7 3 -2 5 12 5 14 0 19 -2 13 -5z m107 -9 c119 -10 154
-26 109 -50 -20 -10 -20 -11 5 -27 14 -9 30 -17 36 -17 5 0 10 -2 10 -4 0 -2
3 -11 6 -20 5 -14 -3 -15 -62 -12 -38 2 -81 9 -96 15 -22 8 -26 8 -21 -4 9
-26 -23 -16 -35 10 -7 15 -20 25 -32 25 -11 0 -20 7 -20 15 0 8 -4 15 -10 15
-5 0 -10 -7 -10 -15 0 -10 -10 -15 -26 -15 -25 0 -26 1 -12 23 9 12 28 23 43
25 16 2 35 10 43 19 13 13 13 16 1 25 -10 7 -9 8 6 3 11 -5 40 -9 65 -11z
m-1164 -28 c-2 -16 -12 -23 -47 -28 -61 -10 -148 -18 -124 -12 48 13 51 14 35
25 -11 7 3 9 45 7 57 -3 60 -2 57 19 -2 17 1 20 17 16 14 -4 20 -12 17 -27z
m1059 14 c7 -12 -2 -12 -30 0 -19 8 -19 9 2 9 12 1 25 -3 28 -9z m361 -9 c15
-15 72 -23 79 -12 14 23 87 9 78 -15 -3 -8 1 -14 11 -14 10 0 13 6 10 15 -4 8
-1 15 5 15 6 0 11 -7 11 -15 0 -18 17 -20 23 -2 2 6 4 -2 3 -20 -1 -17 -4 -29
-8 -26 -5 2 -8 0 -8 -5 0 -6 15 -15 33 -22 28 -10 30 -12 15 -21 -10 -6 -18
-18 -18 -27 0 -11 -3 -13 -8 -5 -7 11 -62 13 -62 2 0 -12 30 -19 76 -19 34 0
42 -3 38 -15 -4 -8 -10 -15 -16 -15 -5 0 -6 5 -3 10 4 6 -12 10 -40 10 -26 0
-55 5 -66 10 -11 7 -19 7 -19 1 0 -5 -20 -9 -45 -9 -31 1 -45 5 -45 15 0 7 -3
13 -7 13 -5 0 -8 14 -8 30 0 17 4 30 10 30 5 0 4 5 -2 11 -7 7 -20 9 -30 5
-24 -10 -28 -8 -28 11 0 10 -15 21 -42 30 -24 8 -43 18 -43 23 0 16 90 26 106
11z m477 -10 c14 -14 0 -13 -43 5 l-35 13 34 -4 c18 -2 38 -8 44 -14z m-1290
-43 c-6 -11 -43 -10 -43 1 0 5 9 7 19 4 16 -4 19 -1 15 19 -4 20 -3 21 5 3 4
-11 7 -23 4 -27z m-2405 -1 c2 -15 -1 -27 -7 -27 -6 0 -11 -7 -11 -16 0 -16
-22 -16 -62 1 -13 5 -21 0 -29 -19 -14 -30 -45 -35 -52 -8 -3 9 -5 -2 -6 -26
-1 -39 -3 -43 -21 -37 -12 4 -20 2 -20 -5 0 -6 -5 -8 -10 -5 -28 17 52 115 93
115 20 0 47 22 47 39 0 6 6 8 14 5 8 -3 17 0 21 6 12 20 40 6 43 -23z m1089 1
c-3 -7 -5 -2 -5 12 0 14 2 19 5 13 2 -7 2 -19 0 -25z m1243 11 c0 -6 -4 -7
-10 -4 -5 3 -10 11 -10 16 0 6 5 7 10 4 6 -3 10 -11 10 -16z m158 10 c-2 -6
-8 -10 -13 -10 -5 0 -11 4 -13 10 -2 6 4 11 13 11 9 0 15 -5 13 -11z m1005 -2
c8 12 136 8 148 -4 7 -7 0 -16 -22 -27 -41 -20 -65 -20 -73 0 -4 10 -13 13
-25 9 -24 -7 -74 12 -66 25 5 8 11 8 20 0 7 -6 16 -7 18 -3z m272 0 c6 0 18
-8 28 -17 17 -17 16 -18 -13 -24 -39 -7 -76 10 -61 28 6 7 7 17 3 21 -4 5 2 5
13 0 11 -4 25 -8 30 -8z m445 2 c25 0 40 -3 33 -5 -7 -3 -9 -12 -6 -20 6 -17
73 -20 73 -3 0 6 6 9 14 6 7 -3 18 -1 24 5 11 11 99 12 169 2 23 -3 61 -7 85
-9 103 -7 177 -18 172 -26 -3 -5 -1 -9 5 -9 5 0 11 5 13 10 3 11 63 -14 73
-31 4 -5 19 -9 34 -9 15 0 32 -5 37 -10 7 -7 19 -7 35 -2 13 5 67 9 120 8 76
-2 100 -6 114 -19 13 -14 14 -17 2 -17 -10 0 -13 -7 -10 -19 4 -14 18 -20 64
-25 70 -7 99 -20 99 -44 0 -14 -9 -17 -46 -17 -25 0 -48 -3 -51 -8 -2 -4 -9
-5 -14 -1 -5 3 -6 11 -2 17 4 7 -1 6 -10 -2 -10 -8 -20 -11 -24 -7 -3 3 0 6 8
6 12 0 12 2 0 9 -8 5 -20 7 -27 4 -7 -2 -21 0 -31 6 -17 10 -17 10 1 11 16 0
15 3 -7 20 -29 23 -62 27 -54 7 3 -8 0 -14 -6 -15 -7 -1 -29 -3 -49 -6 -21 -2
-41 0 -44 6 -5 7 -2 8 6 3 9 -5 11 -4 6 3 -4 7 -13 12 -21 12 -7 0 -15 4 -17
8 -1 5 -25 6 -53 2 -27 -4 -42 -8 -32 -9 9 0 17 -6 17 -12 0 -6 -7 -9 -15 -5
-8 3 -19 -2 -24 -12 -10 -16 -10 -16 -11 1 0 9 -4 17 -10 17 -5 0 -10 -8 -10
-17 -1 -16 -2 -16 -15 1 -9 12 -15 15 -15 7 0 -8 -6 -11 -16 -7 -9 4 -22 2
-29 -4 -7 -6 -31 -12 -53 -14 -22 -3 -52 -12 -66 -21 -30 -20 -62 -12 -69 17
-5 18 -11 20 -51 16 -28 -3 -46 -1 -46 4 0 7 -5 7 -12 1 -18 -13 -152 -17
-174 -4 -11 5 -31 12 -46 15 -37 8 -74 62 -81 118 -6 43 -4 47 16 51 18 4 18
4 -5 6 -21 1 -28 -4 -28 -16 0 -13 -8 -18 -28 -19 -15 -1 -21 1 -14 3 6 3 9 9
6 14 -12 20 6 41 29 35 12 -3 42 -6 67 -7z m-3050 -14 c7 -8 10 -22 6 -30 -3
-9 0 -18 8 -21 15 -6 42 -61 34 -70 -3 -3 -23 -8 -44 -11 -22 -3 -42 -11 -46
-17 -4 -6 -9 -4 -14 7 -3 9 -16 17 -28 17 -11 0 -16 4 -11 8 6 4 11 18 13 32
1 13 9 28 17 33 8 4 15 21 15 37 0 23 5 30 19 30 10 0 24 -7 31 -15z m750 -4
c0 -27 -20 -38 -32 -17 -5 9 -16 16 -23 16 -8 0 -15 5 -15 10 0 6 16 10 35 10
28 0 35 -4 35 -19z m1245 -40 c-6 -5 -25 10 -25 20 0 5 6 4 14 -3 8 -7 12 -15
11 -17z m-3894 -1 c10 0 19 -7 19 -15 0 -8 -9 -15 -20 -15 -11 0 -20 4 -20 9
0 5 -2 15 -3 23 -2 7 -2 10 0 6 3 -5 13 -8 24 -8z m839 -35 c0 -8 -4 -15 -10
-15 -5 0 -10 7 -10 15 0 8 5 15 10 15 6 0 10 -7 10 -15z m3130 5 c0 -5 -7 -10
-15 -10 -8 0 -15 5 -15 10 0 6 7 10 15 10 8 0 15 -4 15 -10z m2390 -11 c47 -5
153 -14 235 -19 154 -10 178 -12 375 -30 63 -6 138 -12 165 -15 182 -14 303
-30 299 -37 -4 -5 -13 -7 -21 -4 -9 4 -21 2 -27 -2 -19 -16 -116 -23 -117 -9
0 7 -2 8 -5 1 -3 -6 -28 -8 -71 -3 -37 4 -73 5 -80 2 -8 -3 -21 1 -31 10 -19
17 -82 28 -82 15 0 -5 -9 -7 -20 -4 -11 3 -30 9 -41 12 -14 4 -19 2 -15 -5 4
-6 19 -11 34 -11 21 0 23 -3 12 -10 -12 -7 -11 -12 6 -27 26 -22 39 -67 18
-59 -8 3 -14 1 -14 -3 0 -5 -16 -9 -35 -8 -19 1 -35 5 -35 10 0 4 -5 5 -11 1
-6 -3 -14 -1 -18 5 -6 9 -15 9 -35 1 -17 -6 -24 -14 -20 -21 9 -15 -96 -3
-110 12 -6 5 -18 9 -28 9 -10 0 -18 5 -18 10 0 7 -6 7 -19 0 -30 -15 -96 -12
-141 7 -22 10 -40 21 -40 25 0 5 -12 8 -26 8 -22 0 -24 2 -14 14 9 12 8 15 -7
13 -11 0 -36 7 -57 17 -20 10 -48 19 -62 20 -14 2 -30 8 -36 14 -20 20 -40 15
-33 -8 4 -14 2 -20 -8 -20 -9 0 -17 3 -20 8 -4 7 -2 -1 5 -28 3 -8 3 -12 1 -7
-3 4 -11 7 -19 7 -9 0 -12 5 -8 13 6 10 4 10 -7 0 -18 -18 -34 -16 -19 2 33
40 -29 97 -65 61 -21 -20 -55 -21 -55 -1 0 9 -6 15 -14 13 -8 -2 -14 1 -13 5
1 5 -9 15 -23 23 -22 13 -8 14 130 9 85 -3 193 -10 240 -16z m-5440 1 c0 -5
-5 -10 -11 -10 -5 0 -7 5 -4 10 3 6 8 10 11 10 2 0 4 -4 4 -10z m2865 0 c3 -5
-1 -10 -10 -10 -9 0 -13 5 -10 10 3 6 8 10 10 10 2 0 7 -4 10 -10z m585 -10
c0 -5 -4 -10 -10 -10 -5 0 -12 -11 -16 -25 -6 -23 -10 -25 -43 -19 -39 7 -52
15 -36 21 6 2 26 12 45 23 39 21 60 25 60 10z m-4310 -10 c0 -5 -2 -10 -4 -10
-3 0 -8 5 -11 10 -3 6 -1 10 4 10 6 0 11 -4 11 -10z m3870 0 c0 -5 -5 -10 -11
-10 -5 0 -7 5 -4 10 3 6 8 10 11 10 2 0 4 -4 4 -10z m-1310 -43 c0 -20 -1 -20
-16 -5 -9 9 -13 21 -9 27 10 16 25 3 25 -22z m-2570 13 c0 -6 -7 -13 -15 -16
-8 -4 -15 -13 -15 -22 0 -12 -3 -13 -11 -5 -8 8 -6 17 7 32 20 23 34 27 34 11z
m1610 -21 c-10 -17 -14 -18 -27 -8 -13 12 -13 14 4 20 30 12 34 10 23 -12z
m4470 11 c0 -5 -6 -10 -14 -10 -8 0 -18 5 -21 10 -3 6 3 10 14 10 12 0 21 -4
21 -10z m-6010 -12 c0 -23 -17 -41 -25 -29 -3 7 -15 9 -26 6 -10 -4 -19 -2
-19 4 0 17 20 23 35 11 12 -10 15 -9 15 4 0 9 5 16 10 16 6 0 10 -6 10 -12z
m60 -23 c0 -17 10 -28 40 -42 43 -20 50 -38 23 -59 -16 -12 -16 -15 -3 -24 22
-14 45 -13 33 3 -16 20 0 63 23 59 10 -2 30 -4 44 -5 19 -2 26 -9 30 -32 7
-37 -9 -50 -72 -59 -30 -5 -49 -3 -53 4 -4 6 -14 9 -22 6 -22 -9 -53 12 -53
36 0 20 -3 19 -28 -11 -28 -33 -29 -34 -67 -21 -36 12 -37 14 -20 26 14 11 15
14 4 15 -58 5 -84 11 -91 22 -13 21 -9 33 19 48 20 11 27 11 30 2 3 -7 11 -13
18 -13 8 0 20 -9 28 -20 13 -19 16 -20 31 -5 9 9 19 27 22 41 7 28 29 31 43 7
9 -15 10 -14 11 10 0 18 -5 27 -16 27 -8 0 -13 4 -9 10 10 16 35 -1 35 -25z
m-335 15 c3 -5 1 -10 -4 -10 -6 0 -11 5 -11 10 0 6 2 10 4 10 3 0 8 -4 11 -10z
m902 -12 c-3 -8 -6 -5 -6 6 -1 11 2 17 5 13 3 -3 4 -12 1 -19z m1681 2 c52
-32 40 -54 -31 -58 -52 -3 -57 -5 -52 -23 5 -14 2 -19 -13 -19 -10 0 -25 -11
-32 -25 -7 -14 -17 -25 -21 -25 -15 0 -20 21 -9 35 10 13 7 16 -17 21 -25 5
-30 11 -30 35 0 24 5 29 24 29 14 0 23 -6 23 -15 0 -8 7 -15 15 -15 8 0 15 9
15 20 0 17 5 19 28 15 15 -3 20 -2 12 1 -8 4 -21 12 -29 18 -11 9 -7 12 20 17
56 10 63 10 97 -11z m-2608 -22 c0 -3 -9 -4 -20 -1 -16 4 -18 8 -9 20 10 11
14 11 20 1 5 -7 9 -16 9 -20z m4520 12 c0 -5 -4 -10 -10 -10 -5 0 -10 5 -10
10 0 6 5 10 10 10 6 0 10 -4 10 -10z m3160 0 c11 -8 7 -9 -15 -4 -37 8 -45 14
-19 14 10 0 26 -5 34 -10z m-5691 -9 c7 -5 9 -11 4 -14 -4 -3 -17 1 -28 9 -21
16 0 20 24 5z m5248 3 c-3 -3 -12 -4 -19 -1 -8 3 -5 6 6 6 11 1 17 -2 13 -5z
m593 -3 l25 -7 -23 -8 c-13 -4 -36 -3 -50 3 -15 5 -38 12 -52 14 -14 2 -2 4
25 5 28 0 61 -3 75 -7z m-1354 -27 c13 -14 24 -27 24 -28 0 -9 -60 -27 -69
-22 -18 11 -4 76 17 76 2 0 15 -11 28 -26z m-1956 7 c0 -14 -18 -23 -31 -15
-8 4 -7 9 2 15 18 11 29 11 29 0z m3665 -18 c105 -10 173 -19 153 -21 -34 -3
-36 -5 -28 -27 6 -16 5 -27 -4 -34 -20 -17 -91 9 -90 32 1 9 -5 17 -13 17 -8
0 -11 5 -8 10 4 6 -7 10 -27 11 -18 0 -53 2 -78 5 -25 3 -52 5 -60 5 -51 0
-119 12 -114 20 3 6 22 8 43 5 20 -3 122 -13 226 -23z m-4005 -7 c0 -8 10 -18
22 -22 21 -6 21 -7 -6 -21 -38 -20 -70 -13 -74 16 -2 13 2 28 10 32 21 14 48
10 48 -5z m-1815 -26 c3 -5 1 -10 -4 -10 -6 0 -11 5 -11 10 0 6 2 10 4 10 3 0
8 -4 11 -10z m4900 -10 c8 0 19 -9 25 -20 11 -21 10 -21 -37 -36 -7 -2 -19 7
-28 19 -19 27 -19 37 0 37 8 0 15 6 16 13 0 10 2 10 6 0 2 -7 11 -13 18 -13z
m-4671 -56 c9 -23 8 -24 -13 -24 -14 0 -18 5 -14 20 6 24 19 26 27 4z m6944
-3 c98 -19 115 -27 92 -41 -22 -14 -47 -12 -64 6 -21 21 -62 15 -58 -8 2 -13
-4 -18 -22 -18 -27 0 -96 37 -96 51 0 5 -8 9 -17 10 -15 0 -15 2 2 9 30 13 61
11 163 -9z m-6921 -13 c-3 -8 -6 -5 -6 6 -1 11 2 17 5 13 3 -3 4 -12 1 -19z
m43 12 c0 -5 -4 -10 -10 -10 -5 0 -10 5 -10 10 0 6 5 10 10 10 6 0 10 -4 10
-10z m7067 -26 c31 -9 35 -39 7 -69 -12 -14 -26 -25 -30 -25 -20 0 -54 46 -54
72 0 24 4 28 28 28 15 0 37 -3 49 -6z m-4757 -14 c0 -5 -7 -7 -15 -4 -8 4 -15
8 -15 10 0 2 7 4 15 4 8 0 15 -4 15 -10z m-2461 -21 c29 -10 36 -20 32 -43 -1
-5 5 -6 14 -3 10 5 15 0 15 -13 0 -13 -5 -18 -15 -14 -10 4 -15 0 -15 -12 0
-16 -2 -17 -10 -4 -5 8 -10 11 -10 5 0 -6 -3 -5 -8 1 -4 6 -24 14 -44 17 -30
5 -38 3 -38 -10 0 -10 -6 -14 -20 -10 -11 3 -23 1 -26 -4 -7 -11 -51 -12 -58
0 -3 4 -16 7 -28 6 -13 -1 -15 0 -6 2 9 2 18 14 20 26 2 17 11 23 38 25 19 2
32 0 28 -4 -12 -11 12 -34 28 -27 13 5 13 7 -1 17 -16 12 -10 27 20 44 25 14
44 15 84 1z m7365 -34 c8 -9 19 -15 23 -14 20 3 27 -2 13 -11 -13 -9 -13 -11
0 -19 11 -8 9 -12 -13 -20 -39 -15 -59 -14 -85 5 -18 12 -20 19 -12 35 6 10 7
19 3 19 -4 0 -1 5 7 10 22 14 46 12 64 -5z m-8079 -5 c3 -5 1 -10 -4 -10 -6 0
-11 5 -11 10 0 6 2 10 4 10 3 0 8 -4 11 -10z m2355 -25 c0 -8 7 -15 15 -15 8
0 15 -7 15 -15 0 -18 -5 -18 -30 -5 -10 6 -21 7 -23 3 -10 -15 -70 -8 -81 9
-14 23 -3 32 22 19 15 -8 23 -7 32 4 16 19 50 19 50 0z m5878 -60 c-4 -35 -23
-37 -23 -2 -1 16 4 27 13 27 8 0 12 -9 10 -25z m-5968 -60 c0 -19 -27 -19 -60
0 -25 14 -24 14 18 15 31 0 42 -4 42 -15z m128 -19 c-9 -10 -15 -11 -20 -2 -6
8 -10 7 -17 -2 -7 -11 -9 -11 -14 2 -5 13 1 16 29 16 29 0 33 -2 22 -14z
m5532 -366 c0 -5 -5 -10 -11 -10 -5 0 -7 5 -4 10 3 6 8 10 11 10 2 0 4 -4 4
-10z m35 -10 c3 -5 1 -10 -4 -10 -6 0 -11 5 -11 10 0 6 2 10 4 10 3 0 8 -4 11
-10z m-75 -4 c0 -3 -4 -8 -10 -11 -5 -3 -10 -1 -10 4 0 6 5 11 10 11 6 0 10
-2 10 -4z m-70 -24 c0 -13 -12 -22 -22 -16 -10 6 -1 24 13 24 5 0 9 -4 9 -8z
m-8420 -841 c0 -5 17 -7 39 -4 40 5 66 -12 36 -24 -10 -3 -20 -1 -24 6 -4 6
-16 11 -27 10 -34 -4 -54 1 -54 11 0 6 7 10 15 10 8 0 15 -4 15 -9z m-30 -32
c0 -5 -5 -7 -11 -3 -6 3 -15 0 -20 -7 -4 -7 -11 -10 -14 -7 -11 11 5 28 26 28
10 0 19 -5 19 -11z m-30 -89 c0 -5 -2 -10 -4 -10 -3 0 -8 5 -11 10 -3 6 -1 10
4 10 6 0 11 -4 11 -10z m-43 -32 c-3 -8 -6 -5 -6 6 -1 11 2 17 5 13 3 -3 4
-12 1 -19z m1346 -35 c-7 -2 -19 -2 -25 0 -7 3 -2 5 12 5 14 0 19 -2 13 -5z
m247 -14 c0 -9 4 -9 14 0 15 13 67 11 59 -2 -3 -5 8 -8 23 -7 16 1 45 1 64 0
31 -1 33 -2 13 -10 -13 -5 -23 -15 -23 -22 0 -10 2 -10 9 1 7 10 18 12 47 5
l39 -8 -45 -6 c-25 -3 -62 -5 -83 -5 -20 0 -37 -2 -37 -5 0 -3 -16 -18 -35
-33 -29 -23 -39 -26 -50 -17 -12 10 -18 10 -30 0 -8 -7 -23 -9 -32 -5 -17 6
-17 7 1 20 10 8 22 12 27 10 4 -3 10 -1 14 5 3 5 -1 10 -10 10 -12 0 -14 6 -9
27 11 40 44 72 44 42z m-194 -31 c-9 -5 -16 -14 -16 -20 0 -7 4 -7 14 1 20 17
48 3 41 -20 -4 -11 -2 -19 3 -19 5 0 19 -9 31 -19 13 -11 28 -22 34 -25 9 -4
9 -8 1 -11 -6 -3 -20 -12 -30 -20 -18 -13 -17 -14 11 -25 l30 -12 -24 -12
c-27 -15 -13 -31 19 -21 17 5 20 2 20 -24 0 -35 5 -38 26 -17 9 9 10 17 4 21
-22 13 -9 27 20 22 23 -5 32 -2 41 14 8 15 8 24 0 32 -14 14 -15 50 -1 42 6
-3 10 -15 10 -25 0 -10 3 -20 8 -22 11 -5 45 -69 39 -74 -2 -3 -12 2 -20 11
-18 17 -37 20 -37 5 0 -5 5 -10 11 -10 7 0 17 -7 24 -16 9 -13 16 -14 33 -5
12 6 30 15 40 20 9 4 28 4 40 0 14 -6 31 -5 43 1 13 7 19 7 19 1 0 -7 9 -7 24
1 27 11 61 4 51 -11 -9 -16 10 -21 42 -12 22 7 34 4 52 -10 43 -35 87 -21 118
39 11 21 11 23 -3 18 -9 -3 -12 -2 -9 5 4 6 -2 13 -14 16 -20 5 -35 32 -36 63
0 9 -9 14 -23 13 -16 -2 -22 3 -22 18 0 11 -5 29 -10 40 -10 17 -7 19 32 20
30 0 37 3 24 8 -14 5 -16 10 -8 15 7 4 16 5 20 2 5 -3 71 -6 148 -6 123 -1
196 -9 244 -27 8 -4 20 -7 25 -8 6 -1 12 -3 15 -4 17 -8 63 -13 118 -12 54 1
62 -2 62 -18 0 -10 -6 -21 -14 -24 -10 -4 -12 0 -8 15 4 15 1 19 -9 16 -8 -3
-13 -10 -12 -16 2 -6 -11 -6 -37 0 -29 8 -44 7 -54 -1 -7 -6 -20 -9 -28 -6 -9
4 -18 -1 -23 -12 -7 -17 -8 -17 -15 2 -7 17 -9 17 -9 3 -1 -10 -8 -18 -16 -18
-8 0 -15 -7 -15 -15 0 -20 -43 -47 -64 -39 -11 4 -16 1 -16 -10 0 -9 -6 -13
-14 -10 -7 3 -20 -1 -27 -8 -26 -26 -77 -40 -128 -36 -61 5 -65 -12 -5 -27 21
-5 41 -12 44 -16 3 -3 11 -8 19 -10 11 -4 11 -8 -3 -21 -23 -24 -21 -58 4 -58
11 0 20 -4 20 -9 0 -9 75 -27 97 -22 17 3 64 -29 58 -39 -3 -5 -1 -11 4 -14 5
-3 11 1 15 9 3 8 13 15 23 15 15 0 16 -2 3 -10 -12 -8 -12 -12 -2 -18 9 -6 11
-18 6 -38 -6 -25 -8 -26 -15 -9 -7 19 -8 18 -8 -2 -1 -14 -7 -23 -17 -23 -24
0 -6 -20 19 -21 21 0 21 -1 2 -8 -19 -8 -19 -8 0 -19 11 -6 14 -12 7 -12 -7 0
-20 -7 -28 -15 -9 -8 -23 -15 -32 -14 -14 0 -13 2 3 9 l20 9 -20 1 c-17 2 -16
3 5 10 21 7 22 8 5 9 -12 1 -25 -3 -30 -8 -6 -6 -30 -12 -55 -14 -37 -3 -41
-5 -23 -11 25 -9 21 -26 -5 -26 -9 0 -28 6 -42 13 -15 8 -35 10 -50 6 -41 -11
-60 -10 -60 5 0 8 -16 17 -37 21 -21 4 -41 12 -45 18 -6 9 -11 8 -18 -3 -7
-11 -12 -12 -21 -3 -8 8 -6 16 11 33 12 12 19 25 15 28 -4 4 -15 -3 -25 -15
-19 -24 -45 -30 -55 -12 -4 6 -14 8 -22 5 -20 -8 -43 11 -36 30 4 10 -3 14
-27 14 -18 0 -29 4 -25 10 3 6 13 10 21 10 19 0 49 29 40 38 -4 3 -10 1 -14
-5 -5 -8 -28 -10 -70 -6 -57 5 -62 8 -62 29 0 13 -4 24 -10 24 -5 0 -10 -9
-10 -20 0 -11 -4 -20 -10 -20 -5 0 -10 8 -10 18 0 23 -19 42 -35 35 -20 -7
-53 32 -61 71 -6 36 -18 46 -27 24 -4 -10 -8 -9 -16 2 -9 13 -11 12 -11 -5 -1
-18 -2 -18 -13 -4 -8 10 -34 17 -77 21 -36 2 -55 3 -42 1 13 -3 21 -10 19 -16
-6 -18 -37 -21 -50 -4 -7 9 -28 17 -47 19 -19 1 -41 10 -48 18 -10 11 -15 12
-18 3 -3 -7 -14 -13 -25 -13 -20 0 -26 15 -9 25 14 9 8 54 -9 60 -11 4 -10 8
5 20 11 8 14 15 7 15 -7 0 -13 5 -13 11 0 5 5 7 10 4 6 -3 10 -1 10 4 0 6 -4
11 -10 11 -5 0 -10 15 -10 34 0 19 -5 38 -11 41 -5 4 -9 14 -7 22 3 18 68 29
78 13 3 -5 16 1 30 14 19 17 28 21 38 13 11 -9 10 -12 -2 -19z m-521 12 c-3
-5 -10 -10 -16 -10 -5 0 -9 5 -9 10 0 6 7 10 16 10 8 0 12 -4 9 -10z m1035 -9
c0 -5 -9 -11 -20 -14 -11 -3 -20 -1 -20 3 0 5 8 11 18 13 9 3 18 5 20 6 1 0 2
-3 2 -8z m107 -7 c-3 -3 -12 -4 -19 -1 -8 3 -5 6 6 6 11 1 17 -2 13 -5z m-293
-48 c-3 -8 -12 -12 -20 -9 -21 8 -17 23 6 23 13 0 18 -5 14 -14z m1726 -41 c8
-2 56 -7 105 -10 50 -4 108 -9 130 -11 22 -3 72 -7 110 -10 228 -16 416 -43
485 -69 52 -20 222 -34 425 -34 77 0 194 -5 260 -10 174 -15 345 -31 380 -35
71 -10 225 -26 285 -31 36 -3 92 -7 125 -10 33 -2 98 -7 145 -10 47 -3 92 -8
100 -10 12 -3 161 -20 360 -40 114 -11 242 -19 460 -30 374 -18 622 -43 645
-66 5 -5 -1 -9 -18 -9 -19 0 -25 -4 -21 -15 4 -8 10 -12 15 -9 5 3 9 0 9 -5 0
-6 -8 -11 -19 -11 -10 0 -21 -9 -24 -20 -3 -13 -14 -20 -29 -20 -27 0 -55 -35
-35 -44 7 -3 -5 -4 -25 -1 -27 4 -38 2 -39 -7 0 -10 -2 -10 -6 1 -5 11 -7 11
-14 0 -8 -12 -11 -12 -18 0 -8 13 -12 13 -27 0 -11 -9 -15 -9 -10 -1 4 6 2 12
-3 12 -6 0 -11 -16 -11 -35 0 -19 -4 -35 -10 -35 -5 0 -10 9 -10 20 0 28 -32
26 -67 -5 l-28 -24 29 -1 c23 0 26 -2 17 -14 -7 -8 -11 -20 -10 -28 3 -26 -1
-38 -15 -38 -7 0 -16 -8 -20 -17 -6 -20 -25 -51 -42 -69 -6 -7 -21 -10 -32 -7
-11 2 -28 1 -38 -5 -16 -9 -15 -11 4 -21 16 -8 28 -9 42 -1 17 9 20 8 20 -10
0 -17 -4 -20 -20 -15 -30 9 -60 -4 -60 -26 0 -11 -7 -19 -16 -19 -11 0 -15 6
-11 20 4 16 0 20 -18 20 -13 0 -26 6 -28 13 -4 9 -6 9 -6 -1 -1 -7 6 -15 14
-18 8 -4 15 -12 15 -20 0 -19 -26 -18 -34 2 -3 9 -12 14 -19 11 -9 -3 -11 11
-9 54 3 38 0 59 -7 59 -6 0 -11 -7 -11 -15 0 -12 -8 -14 -30 -10 -17 3 -39 1
-48 -4 -15 -9 -14 -10 6 -11 12 0 22 -4 22 -10 0 -5 -16 -10 -36 -10 -24 0
-34 4 -32 12 6 16 -20 43 -30 33 -4 -4 -1 -10 6 -12 14 -5 16 -33 2 -33 -5 0
-10 7 -10 15 0 8 -4 15 -8 15 -5 0 -15 11 -22 25 -7 14 -16 25 -19 25 -13 -1
-53 -41 -47 -47 3 -4 12 2 20 12 13 18 14 18 24 -2 15 -27 5 -35 -35 -27 -34
6 -48 -11 -18 -22 19 -8 20 -24 1 -24 -7 0 -16 9 -19 20 -4 16 -14 20 -46 20
-23 0 -41 -4 -41 -10 0 -5 7 -10 15 -10 8 0 15 -9 15 -20 0 -17 6 -20 35 -18
19 1 38 -2 42 -7 4 -4 0 -5 -11 -1 -14 5 -17 3 -12 -10 3 -8 6 -22 6 -30 0 -9
11 -14 35 -14 19 0 35 -5 35 -11 0 -5 6 -7 13 -3 6 4 8 3 4 -2 -4 -4 -24 -7
-44 -5 -29 2 -40 -3 -63 -31 -15 -18 -31 -30 -35 -26 -9 9 17 48 32 48 8 0 13
14 13 35 0 32 -2 35 -30 35 -16 0 -30 4 -30 10 0 5 -7 7 -15 4 -8 -4 -15 -11
-15 -16 0 -6 7 -7 16 -4 15 6 16 0 10 -40 -7 -53 -20 -74 -47 -74 -23 0 -25
-16 -3 -24 30 -12 7 -18 -41 -10 -26 3 -42 10 -36 13 5 4 7 17 4 30 -6 23 -6
23 -19 -5 -11 -25 -12 -26 -13 -8 -1 18 -7 22 -33 20 -25 -1 -35 4 -43 22 -5
12 -19 22 -30 22 -18 1 -19 1 -2 11 17 10 24 39 10 39 -5 0 -25 -4 -46 -9 -46
-11 -47 8 -1 24 20 7 28 16 26 28 -4 21 -22 23 -22 2 0 -8 -7 -15 -15 -15 -8
0 -15 9 -15 20 0 16 -6 20 -32 19 -31 -2 -31 -2 -5 -6 24 -4 39 -21 20 -24
-60 -9 -62 -8 -66 24 -2 18 -2 -11 -1 -63 2 -67 0 -90 -7 -77 -14 23 -34 21
-51 -5 -15 -22 -21 -23 -169 -24 -88 0 -177 5 -208 12 -30 7 -60 10 -67 7 -7
-2 -22 5 -33 16 -12 12 -21 16 -21 10 0 -7 -12 -9 -32 -5 -43 8 -164 9 -188 1
-13 -4 -20 -2 -20 7 0 8 -3 9 -8 3 -9 -13 -105 -15 -113 -2 -4 5 -28 9 -54 9
-26 -1 -56 5 -68 12 -15 10 -64 14 -162 16 -155 2 -237 6 -275 14 -14 3 -40 8
-59 10 -18 3 -39 10 -46 16 -8 7 -14 7 -17 1 -3 -10 -91 8 -104 22 -4 4 -23 7
-43 7 -39 0 -120 35 -128 56 -3 8 -14 14 -24 14 -19 0 -28 6 -64 38 -8 7 -13
25 -11 40 2 15 1 19 -1 10 -5 -21 -36 -32 -63 -23 -11 4 -20 2 -20 -4 0 -6 5
-11 10 -11 6 0 10 -4 10 -10 0 -16 -36 -12 -50 5 -9 11 -16 13 -24 5 -14 -14
-26 -12 -26 5 0 8 7 15 15 15 18 0 20 16 3 26 -6 4 -16 0 -23 -9 -7 -10 -17
-17 -24 -17 -6 0 -11 -7 -11 -15 0 -8 -7 -15 -15 -15 -8 0 -15 7 -15 16 0 12
-7 14 -30 9 -23 -5 -30 -3 -30 9 0 14 -35 33 -53 28 -15 -4 -20 30 -6 40 10 7
8 8 -7 3 -12 -3 -32 -1 -45 4 -20 7 -15 10 36 16 69 9 83 14 64 26 -8 4 12 10
52 15 68 8 75 7 72 -7 -4 -11 18 -11 36 0 8 5 23 3 39 -5 17 -8 31 -10 42 -4
10 5 19 7 22 5 6 -6 83 -15 141 -17 26 0 47 -5 47 -9 0 -5 25 -8 56 -7 30 1
58 -2 62 -7 10 -14 62 -19 62 -6 0 14 127 6 145 -9 8 -7 23 -9 32 -5 10 4 29
9 43 12 13 2 26 6 29 9 11 10 -36 74 -61 83 -15 6 -28 8 -28 5 0 -3 -12 4 -26
15 -19 15 -43 21 -78 22 -42 1 -46 3 -21 8 l30 7 -39 8 c-25 5 -49 3 -69 -5
-25 -11 -31 -10 -41 3 -12 17 -106 31 -106 16 0 -6 -19 -8 -43 -7 -38 4 -43 2
-39 -13 5 -19 -17 -25 -33 -9 -6 5 -19 11 -30 14 -18 4 -17 5 3 6 14 1 22 6
19 14 -3 8 -20 11 -52 9 -27 -1 -54 3 -63 10 -12 10 -14 10 -8 1 5 -10 -3 -13
-32 -13 -36 0 -40 3 -46 31 -5 27 -9 30 -31 25 -18 -5 -28 -1 -37 14 -7 11
-22 20 -33 20 -15 0 -17 -2 -6 -9 10 -7 11 -10 1 -16 -8 -5 -18 -1 -26 9 -7
10 -17 15 -22 12 -6 -3 -18 -3 -27 0 -12 5 -14 9 -4 15 7 4 -7 10 -37 14 -27
3 -59 10 -71 15 -17 7 -23 6 -23 -3 0 -9 -11 -12 -35 -9 -19 2 -35 0 -35 -5 0
-4 -41 -10 -92 -11 -50 -2 -95 -5 -99 -8 -9 -5 -151 27 -159 36 -3 3 -25 12
-50 20 -68 21 -93 39 -78 57 7 9 24 13 43 11 27 -3 31 -1 27 14 -5 19 -27 24
-37 8 -3 -5 -14 -10 -24 -10 -13 0 -18 8 -18 30 0 17 4 30 9 30 5 0 6 5 3 10
-4 6 3 29 14 51 l21 40 -37 -7 c-36 -7 -37 -6 -23 11 11 13 24 16 55 12 22 -2
67 -1 100 3 56 7 241 3 275 -5z m-1760 -16 c0 -5 -4 -9 -10 -9 -5 0 -10 7 -10
16 0 8 5 12 10 9 6 -3 10 -10 10 -16z m-4020 -49 c0 -5 -4 -10 -10 -10 -5 0
-10 5 -10 10 0 6 5 10 10 10 6 0 10 -4 10 -10z m5360 -20 c0 -13 -7 -20 -20
-20 -23 0 -26 10 -8 28 18 18 28 15 28 -8z m-1420 -10 c0 -5 -5 -10 -11 -10
-5 0 -7 5 -4 10 3 6 8 10 11 10 2 0 4 -4 4 -10z m-830 -20 c0 -5 -4 -10 -10
-10 -5 0 -10 5 -10 10 0 6 5 10 10 10 6 0 10 -4 10 -10z m70 -60 c0 -5 -5 -10
-11 -10 -5 0 -7 5 -4 10 3 6 8 10 11 10 2 0 4 -4 4 -10z m2130 -20 c0 -5 -2
-10 -4 -10 -3 0 -8 5 -11 10 -3 6 -1 10 4 10 6 0 11 -4 11 -10z m-1344 -67
c-11 -11 -19 6 -11 24 8 17 8 17 12 0 3 -10 2 -21 -1 -24z m671 -9 c-3 -3 -12
-4 -19 -1 -8 3 -5 6 6 6 11 1 17 -2 13 -5z m-1537 -42 c0 -14 -11 -21 -26 -15
-21 8 -17 23 6 23 11 0 20 -4 20 -8z m1740 -36 c0 -3 -4 -8 -10 -11 -5 -3 -10
-1 -10 4 0 6 5 11 10 11 6 0 10 -2 10 -4z m26 -31 c8 -20 -13 -45 -37 -45 -23
0 -25 18 -4 26 8 4 15 12 15 20 0 19 19 18 26 -1z m37 -12 c3 -5 -1 -14 -9
-21 -12 -11 -14 -9 -14 8 0 20 14 27 23 13z m1327 -3 c0 -5 -2 -10 -4 -10 -3
0 -8 5 -11 10 -3 6 -1 10 4 10 6 0 11 -4 11 -10z m-980 -34 c0 -11 -19 -15
-25 -6 -3 5 1 10 9 10 9 0 16 -2 16 -4z m-330 -16 c0 -13 -28 -25 -38 -16 -3
4 0 11 8 16 20 13 30 12 30 0z m783 -16 c-1 -6 15 -14 35 -17 20 -2 67 -19
105 -36 78 -36 77 -36 77 -16 0 8 -8 15 -17 15 -15 0 -15 2 -4 9 10 7 25 2 48
-16 27 -21 31 -28 22 -44 -12 -24 -25 -24 -77 1 -39 19 -62 25 -62 16 0 -2 -3
-12 -6 -21 -5 -13 -1 -15 22 -10 25 5 26 4 7 -4 -11 -5 -30 -7 -41 -4 -17 4
-19 11 -15 44 5 32 3 39 -11 39 -12 0 -16 -10 -16 -42 0 -32 -3 -39 -10 -28
-6 10 -10 11 -10 3 0 -19 -27 -16 -34 3 -5 14 -10 13 -31 -10 -25 -27 -55 -35
-55 -15 0 7 -7 17 -15 23 -9 6 -17 27 -18 46 -1 19 -6 41 -11 49 -7 11 -1 13
27 9 30 -3 34 -1 25 10 -10 11 -5 13 28 10 22 -2 38 -8 37 -14z m-1460 -21
c-7 -2 -19 -2 -25 0 -7 3 -2 5 12 5 14 0 19 -2 13 -5z m1207 -8 c0 -9 -6 -12
-15 -9 -8 4 -15 10 -15 15 0 5 7 9 15 9 8 0 15 -7 15 -15z m67 -7 c-3 -8 -6
-5 -6 6 -1 11 2 17 5 13 3 -3 4 -12 1 -19z m1427 -14 c27 -10 18 -21 -14 -16
-16 2 -27 8 -24 13 6 11 16 11 38 3z m-1444 -24 c0 -5 -9 -10 -20 -10 -11 0
-20 5 -20 10 0 6 9 10 20 10 11 0 20 -4 20 -10z m540 -101 c0 -6 -4 -7 -10 -4
-5 3 -10 11 -10 16 0 6 5 7 10 4 6 -3 10 -11 10 -16z m-303 -5 c-3 -3 -12 -4
-19 -1 -8 3 -5 6 6 6 11 1 17 -2 13 -5z m366 -21 c-7 -2 -19 -2 -25 0 -7 3 -2
5 12 5 14 0 19 -2 13 -5z m3384 -9 c-3 -3 -12 -4 -19 -1 -8 3 -5 6 6 6 11 1
17 -2 13 -5z m-3079 -69 c-3 -3 -9 2 -12 12 -6 14 -5 15 5 6 7 -7 10 -15 7
-18z m3079 -1 c-3 -3 -12 -4 -19 -1 -8 3 -5 6 6 6 11 1 17 -2 13 -5z m-490
-79 c-4 -8 -12 -15 -19 -15 -9 0 -8 3 2 10 8 5 11 10 7 10 -5 0 -5 5 -2 11 10
15 19 3 12 -16z m-527 -11 c0 -7 -27 -34 -34 -34 -4 0 -1 9 6 20 12 19 28 27
28 14z m610 -19 c0 -8 -8 -11 -20 -8 -20 5 -25 15 -14 26 9 9 34 -4 34 -18z
m44 -57 c-10 -16 -22 -7 -17 13 4 15 8 17 14 8 4 -7 5 -17 3 -21z m-684 -8 c0
-5 -4 -10 -10 -10 -5 0 -10 5 -10 10 0 6 5 10 10 10 6 0 10 -4 10 -10z m68
-11 c-19 -13 -28 -11 -28 5 0 9 7 12 21 9 16 -4 17 -8 7 -14z m52 1 c0 -5 -7
-10 -15 -10 -8 0 -15 5 -15 10 0 6 7 10 15 10 8 0 15 -4 15 -10z m308 -56
c-11 -11 -18 -12 -22 -5 -4 6 0 11 8 11 9 0 16 5 16 12 0 6 3 8 7 4 4 -3 0
-14 -9 -22z m-63 6 c3 -5 1 -10 -4 -10 -6 0 -11 5 -11 10 0 6 2 10 4 10 3 0 8
-4 11 -10z m212 -16 c-3 -3 -12 -4 -19 -1 -8 3 -5 6 6 6 11 1 17 -2 13 -5z"/>
<path d="M3068 4763 c7 -3 16 -2 19 1 4 3 -2 6 -13 5 -11 0 -14 -3 -6 -6z"/>
<path d="M3186 4745 c-3 -8 -1 -15 3 -15 5 0 11 7 15 15 3 8 1 15 -3 15 -5 0
-11 -7 -15 -15z"/>
<path d="M3028 4743 c7 -3 16 -2 19 1 4 3 -2 6 -13 5 -11 0 -14 -3 -6 -6z"/>
<path d="M3345 4740 c4 -6 11 -8 16 -5 14 9 11 15 -7 15 -8 0 -12 -5 -9 -10z"/>
<path d="M3388 4743 c7 -3 16 -2 19 1 4 3 -2 6 -13 5 -11 0 -14 -3 -6 -6z"/>
<path d="M3145 4730 c-3 -5 1 -10 9 -10 9 0 16 5 16 10 0 6 -4 10 -9 10 -6 0
-13 -4 -16 -10z"/>
<path d="M3018 4723 c6 -2 18 -2 25 0 6 3 1 5 -13 5 -14 0 -19 -2 -12 -5z"/>
<path d="M3280 4710 c0 -11 2 -20 5 -20 2 0 9 9 15 20 9 16 8 20 -5 20 -8 0
-15 -9 -15 -20z"/>
<path d="M3062 4708 c3 -7 13 -15 22 -16 12 -3 17 1 14 10 -3 7 -13 15 -22 16
-12 3 -17 -1 -14 -10z"/>
<path d="M3200 4704 c0 -12 -5 -14 -17 -9 -27 11 -56 11 -60 0 -1 -6 11 -16
28 -24 26 -12 32 -11 50 4 20 19 26 45 9 45 -5 0 -10 -7 -10 -16z"/>
<path d="M3053 4663 c9 -2 23 -2 30 0 6 3 -1 5 -18 5 -16 0 -22 -2 -12 -5z"/>
<path d="M2913 4630 c-11 -17 -10 -21 8 -31 24 -12 39 1 39 34 0 23 -32 22
-47 -3z"/>
<path d="M2988 4631 c8 -4 13 -12 12 -17 -1 -5 3 -10 8 -12 6 -2 8 6 5 17 -3
12 -13 21 -22 21 -12 0 -13 -2 -3 -9z"/>
<path d="M3076 4624 c-10 -25 -7 -34 9 -28 17 7 20 30 6 38 -5 3 -12 -1 -15
-10z"/>
<path d="M2732 4582 c-14 -9 -6 -42 10 -42 6 0 7 7 4 16 -4 12 -2 15 9 11 8
-4 17 -2 20 2 3 5 -2 12 -11 15 -19 7 -16 7 -32 -2z"/>
<path d="M2820 4409 c0 -5 5 -7 10 -4 6 3 10 8 10 11 0 2 -4 4 -10 4 -5 0 -10
-5 -10 -11z"/>
<path d="M2670 4390 c0 -5 5 -10 10 -10 6 0 10 5 10 10 0 6 -4 10 -10 10 -5 0
-10 -4 -10 -10z"/>
<path d="M4023 4693 c15 -2 39 -2 55 0 15 2 2 4 -28 4 -30 0 -43 -2 -27 -4z"/>
<path d="M4045 4670 c-3 -5 3 -10 14 -10 11 0 23 5 26 10 3 6 -3 10 -14 10
-11 0 -23 -4 -26 -10z"/>
<path d="M4415 4640 c-11 -5 -15 -9 -8 -9 6 -1 13 -9 15 -18 2 -14 7 -12 21
10 19 29 11 34 -28 17z"/>
<path d="M4790 4630 c0 -5 5 -10 11 -10 5 0 7 5 4 10 -3 6 -8 10 -11 10 -2 0
-4 -4 -4 -10z"/>
<path d="M4670 4615 c-7 -8 -8 -15 -2 -15 5 0 15 7 22 15 7 8 8 15 2 15 -5 0
-15 -7 -22 -15z"/>
<path d="M4296 4601 c-12 -5 -15 -10 -9 -14 6 -4 16 0 23 8 14 17 13 17 -14 6z"/>
<path d="M5516 4552 c13 -13 17 -13 29 -1 12 12 10 14 -15 15 -25 1 -27 -1
-14 -14z"/>
<path d="M4260 4522 c0 -14 28 -47 35 -41 2 3 -5 15 -15 29 -11 14 -20 19 -20
12z"/>
<path d="M4312 4455 c0 -16 2 -22 5 -12 2 9 2 23 0 30 -3 6 -5 -1 -5 -18z"/>
<path d="M5257 4415 c-18 -13 -17 -14 2 -20 12 -4 21 -15 21 -26 0 -33 35 -19
36 14 1 24 -3 29 -22 26 -4 0 -10 4 -13 9 -4 7 -13 5 -24 -3z"/>
<path d="M5345 4340 c3 -5 8 -10 11 -10 2 0 4 5 4 10 0 6 -5 10 -11 10 -5 0
-7 -4 -4 -10z"/>
<path d="M3890 4551 c0 -18 18 -21 30 -6 10 13 9 15 -9 15 -11 0 -21 -4 -21
-9z"/>
<path d="M3600 4470 c0 -11 -4 -20 -10 -20 -5 0 -10 -4 -10 -10 0 -19 16 -10
33 20 16 26 16 30 3 30 -9 0 -16 -9 -16 -20z"/>
<path d="M4020 4486 c0 -2 7 -6 15 -10 8 -3 15 -1 15 4 0 6 -7 10 -15 10 -8 0
-15 -2 -15 -4z"/>
<path d="M5998 4477 c27 -7 46 -7 53 0 6 6 -10 9 -43 9 l-53 0 43 -9z"/>
<path d="M6265 4440 c-3 -5 3 -10 14 -10 12 0 21 5 21 10 0 6 -6 10 -14 10 -8
0 -18 -4 -21 -10z"/>
<path d="M6395 4420 c3 -5 11 -10 16 -10 6 0 7 5 4 10 -3 6 -11 10 -16 10 -6
0 -7 -4 -4 -10z"/>
<path d="M7520 4373 c0 -16 19 -37 34 -39 17 -2 20 5 10 30 -6 16 -44 23 -44
9z"/>
<path d="M8320 4230 c0 -5 5 -10 10 -10 6 0 10 5 10 10 0 6 -4 10 -10 10 -5 0
-10 -4 -10 -10z"/>
<path d="M8806 4292 c6 -4 13 -15 17 -24 6 -16 57 -27 57 -12 0 12 -46 43 -65
44 -12 0 -15 -3 -9 -8z"/>
<path d="M8908 4253 c7 -3 16 -2 19 1 4 3 -2 6 -13 5 -11 0 -14 -3 -6 -6z"/>
<path d="M8990 4179 c0 -5 5 -7 10 -4 6 3 10 8 10 11 0 2 -4 4 -10 4 -5 0 -10
-5 -10 -11z"/>
<path d="M4546 4211 c-4 -7 -5 -15 -2 -18 9 -9 19 4 14 18 -4 11 -6 11 -12 0z"/>
<path d="M4461 3991 c-7 -5 -11 -15 -9 -22 3 -10 8 -7 17 9 13 24 12 26 -8 13z"/>
<path d="M4880 2360 c0 -5 10 -10 23 -10 18 0 19 2 7 10 -19 13 -30 13 -30 0z"/>
<path d="M4555 2331 c-6 -11 9 -23 19 -14 9 9 7 23 -3 23 -6 0 -12 -4 -16 -9z"/>
<path d="M4580 2280 c0 -5 5 -10 10 -10 6 0 10 5 10 10 0 6 -4 10 -10 10 -5 0
-10 -4 -10 -10z"/>
<path d="M4660 2120 c-12 -8 -10 -10 10 -10 14 0 32 5 40 10 12 8 10 10 -10
10 -14 0 -32 -5 -40 -10z"/>
<path d="M5192 2076 c7 -8 17 -12 22 -9 4 3 2 9 -5 14 -22 13 -31 11 -17 -5z"/>
<path d="M5250 2037 l-25 -10 23 -4 c35 -7 53 0 38 13 -8 8 -19 8 -36 1z"/>
<path d="M5410 2010 c0 -5 5 -10 10 -10 6 0 10 5 10 10 0 6 -4 10 -10 10 -5 0
-10 -4 -10 -10z"/>
<path d="M5056 1961 c-3 -5 -15 -7 -26 -4 -15 4 -20 0 -20 -16 0 -12 6 -21 15
-21 8 0 15 6 15 13 0 9 3 8 9 -2 10 -16 31 -6 31 14 0 17 -17 28 -24 16z"/>
<path d="M5152 1900 c-16 -26 -15 -30 3 -30 8 0 15 -6 15 -14 0 -25 25 -25 26
0 1 16 -2 21 -13 17 -11 -4 -13 0 -7 21 7 31 -6 34 -24 6z"/>
<path d="M5604 1864 c3 -9 6 -18 6 -20 0 -3 5 -2 10 1 16 10 12 35 -6 35 -11
0 -14 -5 -10 -16z"/>
<path d="M6350 2220 c0 -11 5 -20 10 -20 6 0 10 9 10 20 0 11 -4 20 -10 20 -5
0 -10 -9 -10 -20z"/>
<path d="M6903 2103 c-15 -3 -23 -12 -23 -24 0 -22 -4 -23 -31 -9 -13 7 -19 7
-19 0 0 -5 7 -10 15 -10 8 0 15 -4 15 -9 0 -15 28 -20 61 -11 24 7 35 6 41 -3
6 -9 10 -9 20 1 11 11 10 15 -5 23 -9 6 -15 14 -13 18 3 4 -9 6 -27 4 l-32 -3
30 15 c31 14 18 18 -32 8z"/>
<path d="M9681 1924 c0 -11 3 -14 6 -6 3 7 2 16 -1 19 -3 4 -6 -2 -5 -13z"/>
<path d="M9720 1840 c0 -5 5 -10 10 -10 6 0 10 5 10 10 0 6 -4 10 -10 10 -5 0
-10 -4 -10 -10z"/>
<path d="M9695 1800 c4 -6 11 -8 16 -5 14 9 11 15 -7 15 -8 0 -12 -5 -9 -10z"/>
<path d="M7332 1660 c0 -14 2 -19 5 -12 2 6 2 18 0 25 -3 6 -5 1 -5 -13z"/>
<path d="M7518 1673 c6 -2 18 -2 25 0 6 3 1 5 -13 5 -14 0 -19 -2 -12 -5z"/>
<path d="M9520 1650 c0 -21 -9 -39 -32 -59 -23 -20 -31 -37 -31 -59 0 -18 -2
-32 -5 -32 -10 0 -31 36 -32 53 0 25 -40 23 -40 -2 0 -11 -4 -23 -10 -26 -6
-4 -10 10 -10 34 0 23 4 41 9 41 5 0 7 9 4 20 -5 20 -6 20 -24 -1 -11 -12 -19
-29 -19 -37 0 -10 -7 -12 -25 -8 -20 5 -25 3 -25 -13 0 -11 6 -21 13 -24 6 -2
9 -8 4 -12 -9 -11 -36 24 -37 48 0 9 -4 17 -9 17 -16 0 -22 -19 -13 -37 5 -10
6 -42 3 -70 -4 -29 -4 -53 1 -53 4 0 8 20 8 45 l0 44 53 -6 c28 -3 55 -11 59
-17 5 -7 8 -4 8 7 0 12 8 17 28 17 22 0 30 -6 38 -27 l9 -28 22 22 c13 13 20
29 17 38 -4 8 -1 15 5 15 6 0 11 6 11 14 0 8 7 17 16 20 25 10 54 7 54 -5 0
-7 -10 -9 -25 -7 -31 6 -32 -8 -3 -31 20 -17 22 -17 39 0 17 17 31 17 107 -6
13 -5 22 -3 22 4 0 6 7 11 15 11 8 0 15 -4 15 -10 0 -5 4 -10 9 -10 5 0 11 17
14 38 3 29 0 40 -16 54 -18 14 -19 19 -8 32 11 13 11 16 -2 16 -8 0 -17 -5
-19 -11 -2 -6 -16 -11 -31 -11 -35 0 -35 -11 1 -25 l27 -10 -37 -8 c-21 -4
-38 -11 -38 -16 0 -5 -9 -9 -20 -9 -11 0 -20 5 -20 10 0 6 9 10 19 10 11 0 23
5 27 12 5 8 0 9 -17 3 -62 -19 -94 -2 -85 48 4 19 1 27 -9 27 -10 0 -15 -10
-15 -30z m240 -60 c0 -5 -4 -10 -10 -10 -5 0 -10 5 -10 10 0 6 5 10 10 10 6 0
10 -4 10 -10z"/>
<path d="M9593 1665 c-14 -15 -17 -45 -5 -45 4 0 13 10 20 21 16 25 3 44 -15
24z"/>
<path d="M7680 1660 c0 -5 18 -10 40 -10 22 0 40 5 40 10 0 6 -18 10 -40 10
-22 0 -40 -4 -40 -10z"/>
<path d="M7212 1644 c-12 -8 -22 -22 -22 -30 0 -17 0 -17 39 2 26 13 30 19 20
30 -14 17 -10 17 -37 -2z"/>
<path d="M9394 1635 c-8 -31 0 -42 19 -27 8 7 17 9 20 5 4 -3 7 4 7 17 0 13
-3 20 -7 17 -3 -4 -12 -2 -19 4 -10 8 -15 5 -20 -16z"/>
<path d="M9456 1615 c4 -8 12 -15 20 -15 8 0 11 6 8 15 -4 8 -12 15 -20 15 -8
0 -11 -6 -8 -15z"/>
<path d="M9843 1589 c14 -22 27 -25 27 -5 0 7 -9 16 -19 19 -17 4 -18 2 -8
-14z"/>
<path d="M9200 1589 c0 -5 5 -7 10 -4 6 3 10 8 10 11 0 2 -4 4 -10 4 -5 0 -10
-5 -10 -11z"/>
<path d="M9970 1596 c0 -2 9 -6 20 -9 11 -3 20 -1 20 4 0 5 -9 9 -20 9 -11 0
-20 -2 -20 -4z"/>
<path d="M10226 1585 c4 -8 8 -15 10 -15 2 0 4 7 4 15 0 8 -4 15 -10 15 -5 0
-7 -7 -4 -15z"/>
<path d="M8800 1570 c0 -5 5 -10 10 -10 6 0 10 5 10 10 0 6 -4 10 -10 10 -5 0
-10 -4 -10 -10z"/>
<path d="M9187 1526 c-9 -7 -17 -17 -17 -21 0 -4 6 -2 14 5 13 10 15 4 18 -37
l3 -48 5 48 c6 58 1 70 -23 53z"/>
<path d="M9595 1522 c-3 -8 -1 -20 5 -26 7 -7 10 -5 10 6 0 9 8 18 18 20 14 3
13 5 -5 10 -14 4 -24 1 -28 -10z"/>
<path d="M10220 1530 c0 -5 5 -10 10 -10 6 0 10 5 10 10 0 6 -4 10 -10 10 -5
0 -10 -4 -10 -10z"/>
<path d="M10100 1500 c0 -14 15 -19 29 -11 9 6 7 10 -8 14 -12 3 -21 1 -21 -3z"/>
<path d="M9250 1400 c0 -5 5 -10 10 -10 6 0 10 5 10 10 0 6 -4 10 -10 10 -5 0
-10 -4 -10 -10z"/>
<path d="M9660 1380 c0 -5 5 -10 10 -10 6 0 10 5 10 10 0 6 -4 10 -10 10 -5 0
-10 -4 -10 -10z"/>
<path d="M9197 1366 c-4 -10 -5 -21 -2 -24 9 -9 17 6 13 25 -3 17 -4 17 -11
-1z"/>
<path d="M9600 1345 c0 -8 -4 -15 -10 -15 -5 0 -10 -7 -10 -16 0 -14 2 -14 15
0 8 8 15 19 15 25 0 5 8 12 18 14 13 4 11 5 -5 6 -14 1 -23 -5 -23 -14z"/>
<path d="M9155 1340 c-3 -5 -1 -10 4 -10 6 0 11 5 11 10 0 6 -2 10 -4 10 -3 0
-8 -4 -11 -10z"/>
<path d="M6488 1753 c7 -3 16 -2 19 1 4 3 -2 6 -13 5 -11 0 -14 -3 -6 -6z"/>
<path d="M6555 1751 c-6 -11 9 -23 19 -14 9 9 7 23 -3 23 -6 0 -12 -4 -16 -9z"/>
<path d="M6600 1750 c0 -5 5 -10 10 -10 6 0 10 5 10 10 0 6 -4 10 -10 10 -5 0
-10 -4 -10 -10z"/>
<path d="M6496 1722 c-3 -5 10 -16 29 -25 19 -9 35 -13 35 -8 0 6 -9 13 -20
16 -11 3 -20 11 -20 16 0 11 -17 12 -24 1z"/>
<path d="M2654 6175 c-16 -13 -17 -16 -4 -25 34 -23 98 -5 87 24 -8 20 -57 21
-83 1z"/>
<path d="M2813 6079 c-101 -23 -64 -63 57 -62 164 2 204 4 217 15 20 16 16 24
-21 42 -38 18 -181 21 -253 5z"/>
<path d="M2682 5989 c18 -7 33 -7 45 0 14 8 9 10 -27 10 -42 -1 -43 -1 -18
-10z"/>
<path d="M6931 5857 c-6 -8 -7 -17 -3 -22 4 -4 0 -6 -8 -3 -16 5 -39 -18 -40
-39 0 -15 46 -17 55 -3 3 6 11 10 16 10 6 0 7 -4 4 -10 -3 -5 3 -10 14 -10 12
0 21 -4 21 -9 0 -17 40 -19 90 -4 42 12 49 17 39 29 -9 11 -9 14 0 14 8 0 7 5
-3 15 -8 8 -26 15 -41 15 -15 0 -33 7 -41 15 -19 19 -88 20 -103 2z"/>
<path d="M7660 5849 c0 -5 -4 -7 -10 -4 -5 3 -10 -1 -10 -9 0 -8 4 -17 9 -20
13 -8 45 20 37 32 -9 15 -26 16 -26 1z"/>
<path d="M6542 5815 c-8 -10 -22 -12 -43 -8 -25 5 -31 3 -27 -8 3 -8 14 -13
24 -12 10 2 30 0 43 -3 18 -4 21 -8 12 -17 -17 -17 -13 -27 10 -27 15 0 19 -5
15 -15 -3 -9 0 -15 10 -15 8 0 13 4 10 9 -4 5 0 12 6 15 10 5 10 7 1 12 -7 3
-13 19 -13 35 0 16 -5 29 -11 29 -5 0 -7 5 -4 10 10 15 -18 11 -33 -5z"/>
<path d="M7360 5792 c0 -26 -12 -28 -30 -7 -15 18 -50 19 -73 3 -14 -11 -14
-19 -5 -54 11 -39 13 -41 52 -43 23 -2 47 -3 55 -4 8 0 2 -8 -13 -20 -43 -31
-33 -44 37 -50 52 -4 65 -1 82 15 17 16 17 18 2 12 -13 -5 -16 -2 -11 10 5 13
9 14 20 5 17 -14 18 -36 2 -42 -10 -3 -10 -7 1 -20 14 -18 100 -24 115 -9 4 4
29 7 56 7 36 0 46 -3 39 -12 -8 -8 10 -10 72 -8 46 2 88 0 93 -4 31 -24 126
-20 126 5 0 17 -12 18 -28 2 -9 -9 -12 -8 -12 5 0 12 -8 17 -26 17 -15 0 -23
4 -19 11 4 6 14 8 22 5 8 -3 11 -1 8 4 -3 6 1 13 9 16 21 8 20 33 -1 56 -18
20 -10 39 9 20 7 -7 17 -8 27 -3 17 9 178 8 187 -2 3 -2 -6 -14 -20 -25 -15
-11 -26 -27 -26 -35 0 -21 -22 -36 -59 -39 -34 -2 -57 -20 -47 -37 10 -15 75
-33 94 -26 9 4 38 9 63 12 43 3 47 2 53 -20 3 -15 15 -27 28 -30 13 -2 31 -8
41 -12 13 -5 17 -2 17 14 0 12 6 21 16 21 11 0 14 6 9 20 -5 14 -2 20 9 20 31
0 15 20 -16 21 -18 1 -26 3 -17 6 12 3 15 11 11 25 -3 14 -1 19 6 14 12 -7 44
8 73 34 19 18 34 70 19 70 -5 0 -10 -4 -10 -10 0 -13 -58 -27 -92 -22 -15 2
-28 11 -28 18 0 16 -31 19 -46 4 -8 -8 -32 -6 -80 5 -90 20 -156 25 -171 13
-7 -6 -23 -4 -45 5 -18 7 -44 10 -58 7 -14 -4 -31 -2 -38 3 -10 8 -19 7 -31 0
-14 -9 -25 -8 -45 2 -20 10 -34 12 -53 4 -14 -5 -28 -7 -31 -4 -3 3 -13 -2
-22 -10 -23 -21 -78 -36 -85 -24 -4 5 -13 9 -21 9 -9 0 -22 6 -29 13 -36 31
-43 35 -56 27 -7 -5 -18 -5 -25 1 -8 7 -14 6 -19 -1 -3 -5 -3 -10 2 -10 10 0
-19 -20 -29 -20 -5 0 -8 6 -8 13 0 6 -7 21 -15 31 -15 19 -15 19 -15 -2z m424
-144 c-5 -8 -2 -9 10 -5 9 4 15 3 11 -2 -3 -5 0 -11 7 -13 8 -3 7 -6 -3 -10
-22 -9 -43 7 -36 26 4 9 9 16 12 16 4 0 3 -5 -1 -12z m-259 -37 c-6 -5 -25 10
-25 20 0 5 6 4 14 -3 8 -7 12 -15 11 -17z m652 -11 c1 -11 -2 -20 -8 -20 -5 0
-8 6 -6 13 1 6 -4 11 -11 9 -8 -1 -11 2 -7 8 11 17 31 11 32 -10z m103 -80 c0
-5 -7 -7 -15 -4 -8 4 -15 8 -15 10 0 2 7 4 15 4 8 0 15 -4 15 -10z"/>
<path d="M6746 5773 c-10 -10 5 -23 25 -23 12 0 19 5 17 12 -4 12 -33 20 -42
11z"/>
<path d="M6690 5756 c0 -2 7 -6 15 -10 8 -3 15 -1 15 4 0 6 -7 10 -15 10 -8 0
-15 -2 -15 -4z"/>
<path d="M6856 5741 c-16 -9 -32 -25 -35 -35 -4 -9 -10 -17 -14 -17 -25 3 -31
0 -18 -8 7 -5 10 -14 7 -20 -10 -16 -49 -14 -82 4 -37 19 -50 19 -58 -2 -9
-22 6 -29 75 -37 58 -7 99 4 99 24 0 6 5 10 12 10 6 0 9 -3 5 -6 -3 -3 3 -15
13 -26 23 -25 50 -17 50 14 0 17 3 19 12 10 17 -17 29 -15 22 3 -5 11 1 15 20
15 15 0 26 -6 26 -13 0 -15 46 -41 80 -46 6 0 10 -8 10 -16 0 -8 7 -15 16 -15
12 0 14 3 6 13 -9 10 -4 12 23 9 49 -6 62 24 36 78 -10 22 -15 42 -10 46 5 3
9 9 9 13 0 13 -36 20 -51 10 -8 -5 -9 -9 -4 -9 11 0 -16 -20 -28 -20 -5 0 -5
5 -2 10 3 6 1 10 -4 10 -6 0 -11 -6 -11 -14 0 -26 -26 -37 -71 -30 -35 6 -39
9 -22 15 37 14 37 29 -1 29 -45 0 -48 0 -66 10 -9 4 -27 0 -44 -9z m81 -53
c-3 -7 -5 -2 -5 12 0 14 2 19 5 13 2 -7 2 -19 0 -25z m158 2 c-3 -5 -11 -10
-16 -10 -6 0 -7 5 -4 10 3 6 11 10 16 10 6 0 7 -4 4 -10z"/>
<path d="M6470 5740 c0 -5 9 -10 21 -10 11 0 17 5 14 10 -3 6 -13 10 -21 10
-8 0 -14 -4 -14 -10z"/>
<path d="M6635 5740 c-3 -5 3 -10 14 -10 12 0 21 5 21 10 0 6 -6 10 -14 10 -8
0 -18 -4 -21 -10z"/>
<path d="M6730 5726 c0 -9 30 -14 35 -6 4 6 -3 10 -14 10 -12 0 -21 -2 -21 -4z"/>
<path d="M7973 5673 c-20 -7 -15 -23 7 -23 11 0 20 4 20 9 0 13 -12 19 -27 14z"/>
<path d="M8703 5673 c-20 -8 -15 -23 7 -23 11 0 20 7 20 15 0 15 -6 17 -27 8z"/>
<path d="M6435 5660 c-18 -8 -17 -9 8 -9 16 -1 26 3 22 9 -3 6 -7 10 -8 9 -1
0 -11 -4 -22 -9z"/>
<path d="M6480 5646 c0 -17 5 -26 16 -26 8 0 12 4 9 10 -3 5 0 7 8 4 8 -3 18
0 22 6 9 14 6 17 -28 25 -24 6 -27 5 -27 -19z"/>
<path d="M6620 5620 c0 -5 7 -10 16 -10 8 0 12 5 9 10 -3 6 -10 10 -16 10 -5
0 -9 -4 -9 -10z"/>
<path d="M8372 5602 c4 -36 34 -41 40 -7 3 14 2 25 -1 26 -3 0 -14 2 -24 4
-14 3 -18 -2 -15 -23z"/>
<path d="M8723 5616 c4 -14 47 -21 47 -8 0 5 -11 12 -25 15 -16 3 -24 0 -22
-7z"/>
<path d="M8795 5590 c4 -6 11 -8 16 -5 14 9 11 15 -7 15 -8 0 -12 -5 -9 -10z"/>
<path d="M8536 5564 c-17 -24 -17 -27 -2 -42 13 -14 20 -14 36 -4 16 10 18 9
13 -4 -5 -14 0 -16 33 -11 49 6 114 23 122 32 4 4 -3 15 -16 26 -28 22 -94 37
-100 21 -2 -7 -14 -7 -35 -1 -18 5 -32 9 -32 9 0 0 -8 -12 -19 -26z"/>
<path d="M8410 5554 c-25 -14 -25 -14 14 -14 33 0 37 2 26 15 -7 8 -13 15 -14
14 0 -1 -12 -7 -26 -15z"/>
<path d="M8160 5531 c0 -7 -4 -10 -9 -6 -5 3 -12 1 -16 -5 -9 -15 24 -25 38
-11 8 8 8 14 -1 23 -9 9 -12 9 -12 -1z"/>
<path d="M8760 5520 l-25 -8 28 -1 c15 -1 27 4 27 9 0 6 -1 10 -2 9 -2 -1 -14
-5 -28 -9z"/>
<path d="M8515 5490 c-11 -17 3 -28 30 -22 28 5 33 17 9 26 -22 8 -32 8 -39
-4z"/>
<path d="M8192 5444 c14 -14 21 -15 30 -6 8 8 9 12 1 12 -6 0 -20 3 -30 6 -17
7 -17 6 -1 -12z"/>
<path d="M2170 4860 c0 -5 7 -10 16 -10 8 0 12 5 9 10 -3 6 -10 10 -16 10 -5
0 -9 -4 -9 -10z"/>
<path d="M550 3880 c0 -11 6 -20 14 -20 24 0 28 18 6 30 -17 9 -20 8 -20 -10z"/>
<path d="M940 3856 c0 -8 -5 -16 -12 -18 -20 -7 -1 -37 19 -32 22 6 46 41 38
54 -9 15 -45 12 -45 -4z"/>
<path d="M565 3750 c-8 -13 39 -42 56 -35 8 3 15 14 16 25 1 16 -5 20 -32 20
-19 0 -36 -4 -40 -10z"/>
<path d="M1220 3740 c0 -13 52 -60 66 -60 13 0 24 22 24 47 0 10 -6 14 -20 10
-11 -3 -20 -1 -20 4 0 5 -11 9 -25 9 -14 0 -25 -4 -25 -10z m37 -6 c-3 -3 -12
-4 -19 -1 -8 3 -5 6 6 6 11 1 17 -2 13 -5z"/>
<path d="M65 3702 c-17 -18 -1 -32 35 -32 30 0 38 3 34 14 -5 14 -59 27 -69
18z"/>
<path d="M754 3685 c-1 -14 2 -25 8 -25 5 0 6 5 3 10 -3 6 1 10 9 10 9 0 16 7
16 15 0 27 -35 17 -36 -10z"/>
<path d="M435 3691 c-3 -5 -1 -12 5 -16 5 -3 10 1 10 9 0 18 -6 21 -15 7z"/>
<path d="M310 3680 c0 -5 5 -10 11 -10 5 0 7 5 4 10 -3 6 -8 10 -11 10 -2 0
-4 -4 -4 -10z"/>
<path d="M155 3660 c3 -5 22 -10 42 -10 45 0 36 12 -13 17 -23 2 -33 0 -29 -7z"/>
<path d="M340 3635 c-10 -12 -9 -15 8 -15 11 0 25 7 32 15 10 12 9 15 -8 15
-11 0 -25 -7 -32 -15z"/>
<path d="M720 3636 c0 -2 7 -6 15 -10 8 -3 15 -1 15 4 0 6 -7 10 -15 10 -8 0
-15 -2 -15 -4z"/>
<path d="M920 3620 c0 -10 14 -14 39 -10 8 1 12 -4 8 -14 -4 -10 -1 -13 9 -9
18 7 18 11 0 29 -17 16 -56 19 -56 4z"/>
<path d="M728 3573 c7 -3 16 -2 19 1 4 3 -2 6 -13 5 -11 0 -14 -3 -6 -6z"/>
<path d="M1380 3559 c0 -5 5 -7 10 -4 6 3 10 8 10 11 0 2 -4 4 -10 4 -5 0 -10
-5 -10 -11z"/>
<path d="M189 3481 c11 -7 11 -9 0 -14 -11 -3 -11 -7 -2 -17 12 -13 83 -6 83
8 0 18 -26 32 -60 32 -23 0 -31 -3 -21 -9z"/>
<path d="M968 3453 c7 -3 16 -2 19 1 4 3 -2 6 -13 5 -11 0 -14 -3 -6 -6z"/>
<path d="M467 3356 c-5 -12 0 -16 23 -16 16 0 32 5 35 10 3 6 0 10 -9 10 -8 0
-21 3 -29 6 -8 3 -17 -2 -20 -10z"/>
<path d="M585 3340 c3 -5 11 -10 16 -10 6 0 7 5 4 10 -3 6 -11 10 -16 10 -6 0
-7 -4 -4 -10z"/>
<path d="M262 3258 c3 -7 15 -15 27 -16 16 -3 22 1 19 10 -3 7 -15 15 -27 16
-16 3 -22 -1 -19 -10z"/>
<path d="M12330 3151 c0 -5 5 -13 10 -16 6 -3 10 -2 10 4 0 5 -4 13 -10 16 -5
3 -10 2 -10 -4z"/>
<path d="M12382 3116 c-18 -39 5 -49 38 -16 26 26 25 40 -3 40 -15 0 -28 -9
-35 -24z"/>
<path d="M12651 3081 c-9 -6 -4 -10 18 -13 33 -5 42 6 15 16 -19 7 -16 8 -33
-3z"/>
<path d="M65 3050 c3 -5 11 -10 16 -10 6 0 7 5 4 10 -3 6 -11 10 -16 10 -6 0
-7 -4 -4 -10z"/>
<path d="M1458 3043 c7 -3 16 -2 19 1 4 3 -2 6 -13 5 -11 0 -14 -3 -6 -6z"/>
<path d="M12456 3025 c-3 -9 0 -15 9 -15 8 0 15 7 15 15 0 8 -4 15 -9 15 -5 0
-11 -7 -15 -15z"/>
<path d="M12773 3004 c-4 -11 -13 -14 -29 -10 -13 4 -24 3 -24 -2 0 -4 18 -13
40 -19 40 -10 40 -10 40 18 0 31 -17 39 -27 13z"/>
<path d="M940 2992 c0 -5 7 -13 16 -16 10 -4 14 -1 12 6 -5 15 -28 23 -28 10z"/>
<path d="M935 2950 c-3 -5 -2 -10 4 -10 5 0 13 5 16 10 3 6 2 10 -4 10 -5 0
-13 -4 -16 -10z"/>
<path d="M1417 2915 c-5 -11 0 -15 16 -15 12 0 18 4 12 8 -5 4 -13 11 -16 15
-4 4 -9 1 -12 -8z"/>
<path d="M846 2858 c4 -6 7 -24 6 -39 -1 -38 15 -46 41 -20 21 20 21 21 2 39
-24 22 -59 37 -49 20z"/>
<path d="M938 2863 c7 -3 16 -2 19 1 4 3 -2 6 -13 5 -11 0 -14 -3 -6 -6z"/>
<path d="M1427 2833 c-4 -3 -7 -11 -7 -17 0 -6 5 -5 12 2 6 6 9 14 7 17 -3 3
-9 2 -12 -2z"/>
<path d="M12580 2810 c0 -5 5 -10 11 -10 5 0 7 5 4 10 -3 6 -8 10 -11 10 -2 0
-4 -4 -4 -10z"/>
<path d="M1212 2778 c3 -7 13 -15 22 -16 12 -3 17 1 14 10 -3 7 -13 15 -22 16
-12 3 -17 -1 -14 -10z"/>
<path d="M770 2745 c-7 -9 -9 -19 -5 -23 4 -4 10 -1 12 6 3 6 15 12 28 12 13
0 27 5 30 10 10 16 -51 11 -65 -5z"/>
<path d="M940 2727 c-41 -13 -55 -28 -34 -40 17 -10 87 29 78 44 -3 5 -6 9 -7
8 -1 -1 -18 -6 -37 -12z"/>
<path d="M1050 2705 c-10 -13 -9 -15 8 -15 15 0 20 5 16 15 -4 8 -7 15 -9 15
-1 0 -8 -7 -15 -15z"/>
<path d="M1000 2694 c0 -8 5 -12 10 -9 6 4 8 11 5 16 -9 14 -15 11 -15 -7z"/>
<path d="M516 2685 c-13 -10 -22 -11 -26 -5 -4 6 -14 2 -25 -10 -18 -20 -18
-20 33 -20 53 0 66 8 56 34 -7 19 -13 20 -38 1z"/>
<path d="M768 2693 c7 -3 16 -2 19 1 4 3 -2 6 -13 5 -11 0 -14 -3 -6 -6z"/>
<path d="M366 2675 c4 -8 10 -15 15 -15 5 0 9 7 9 15 0 8 -7 15 -15 15 -9 0
-12 -6 -9 -15z"/>
<path d="M824 2626 c-3 -8 -13 -13 -23 -11 -15 3 -55 -13 -41 -16 59 -15 129
3 109 28 -15 17 -38 17 -45 -1z"/>
<path d="M370 2585 c0 -8 8 -19 19 -24 16 -9 17 -7 13 14 -5 27 -32 35 -32 10z"/>
<path d="M532 2593 c-6 -2 -10 -9 -7 -14 4 -5 -1 -6 -9 -3 -9 3 -17 -3 -21
-16 -7 -22 -12 -22 -60 -5 -15 5 -16 4 -6 -3 11 -8 10 -11 -5 -15 -16 -4 -17
-5 -1 -6 25 -2 21 -20 -8 -31 -27 -10 -35 -47 -12 -56 8 -3 34 2 58 10 24 9
54 16 65 16 13 0 24 8 27 20 4 17 2 20 -14 15 -22 -7 -23 -5 -6 27 8 15 19 22
31 20 18 -4 46 21 46 40 0 9 -57 10 -78 1z"/>
<path d="M185 2540 c4 -6 11 -8 16 -5 14 9 11 15 -7 15 -8 0 -12 -5 -9 -10z"/>
<path d="M223 2522 c-19 -3 -21 -7 -13 -23 6 -10 19 -19 28 -19 44 0 57 -55
17 -70 -14 -5 -25 -16 -25 -25 0 -17 -27 -19 -64 -5 -16 6 -35 6 -53 -1 -33
-12 -73 -61 -55 -67 15 -5 16 -42 1 -42 -6 0 -9 -6 -6 -12 8 -23 -12 -58 -33
-58 -19 0 -20 -6 -20 -130 l0 -130 25 16 c31 20 85 10 93 -18 3 -13 12 -18 26
-16 19 3 22 11 17 47 0 5 -15 9 -32 9 -20 -1 -35 5 -41 15 -5 10 -17 17 -27
17 -21 0 -44 23 -34 33 3 4 18 7 32 8 26 0 26 0 4 11 -26 13 -30 33 -8 42 8 3
15 15 15 26 0 11 7 20 15 20 8 0 15 7 15 15 0 8 7 15 15 15 19 0 19 9 -1 31
-14 15 -14 20 -3 32 28 27 109 59 134 53 39 -10 69 3 84 35 7 16 19 29 26 29
12 0 45 52 45 72 0 4 -13 8 -29 8 -21 0 -36 8 -51 29 -24 35 -66 57 -97 53z"/>
<path d="M617 2524 c7 -3 9 -12 6 -20 -3 -7 -9 -11 -14 -8 -5 3 -9 -2 -9 -10
0 -10 9 -16 25 -16 17 0 25 5 25 18 0 20 -19 42 -34 41 -6 0 -6 -3 1 -5z"/>
<path d="M826 2511 c-3 -5 1 -12 10 -15 20 -8 29 -1 19 13 -8 13 -22 14 -29 2z"/>
<path d="M3760 2500 c0 -5 7 -10 15 -10 8 0 15 5 15 10 0 6 -7 10 -15 10 -8 0
-15 -4 -15 -10z"/>
<path d="M1634 2440 c-16 -8 -30 -18 -32 -22 -2 -5 -13 -8 -25 -8 -13 0 -17
-3 -11 -8 6 -4 13 -13 15 -21 12 -37 146 -45 208 -12 30 17 160 22 183 7 13
-8 20 -7 30 5 16 21 56 31 65 17 3 -6 2 -9 -3 -5 -5 3 -18 -2 -29 -10 -19 -15
-18 -15 10 -8 35 8 57 24 49 36 -3 5 -1 9 5 9 5 0 11 -6 13 -12 3 -7 7 -3 10
10 5 17 2 22 -15 22 -12 0 -53 2 -91 5 -46 3 -72 1 -77 -6 -4 -7 -12 -8 -20
-3 -22 13 -92 16 -84 3 4 -6 -6 -4 -23 5 -37 19 -136 17 -178 -4z"/>
<path d="M2460 2434 c0 -6 -11 -16 -25 -22 -34 -16 -38 -15 -31 4 3 8 2 13 -2
10 -5 -3 -47 -6 -94 -7 -84 -1 -86 -2 -91 -28 -3 -14 -2 -29 2 -34 4 -4 47 -9
97 -12 49 -3 99 -7 110 -9 12 -3 39 2 60 9 49 18 78 19 68 3 -4 -7 -3 -8 4 -4
14 8 -5 56 -22 56 -6 0 -4 5 4 10 11 7 6 10 -20 10 -20 0 -41 5 -48 12 -7 7
-12 8 -12 2z m-225 -64 c3 -5 1 -10 -4 -10 -6 0 -11 5 -11 10 0 6 2 10 4 10 3
0 8 -4 11 -10z"/>
<path d="M2146 2411 c-6 -10 16 -21 42 -21 13 0 12 3 -4 15 -22 17 -31 18 -38
6z"/>
<path d="M700 2315 c0 -14 2 -25 4 -25 2 0 6 11 8 25 3 14 1 25 -3 25 -5 0 -9
-11 -9 -25z"/>
<path d="M3609 2244 c-12 -15 -11 -16 7 -10 12 3 33 2 47 -3 17 -7 28 -7 32
-1 4 6 -5 10 -19 10 -14 0 -26 5 -26 10 0 16 -26 12 -41 -6z"/>
<path d="M3748 2223 c-26 -6 -22 -22 8 -29 32 -8 54 10 28 23 -11 5 -27 8 -36
6z"/>
<path d="M3630 2200 c0 -5 4 -10 9 -10 6 0 13 5 16 10 3 6 -1 10 -9 10 -9 0
-16 -4 -16 -10z"/>
<path d="M3680 2190 c0 -5 5 -10 11 -10 5 0 7 5 4 10 -3 6 -8 10 -11 10 -2 0
-4 -4 -4 -10z"/>
<path d="M276 2145 c-4 -10 1 -15 14 -15 11 0 20 7 20 15 0 8 -6 15 -14 15 -8
0 -16 -7 -20 -15z"/>
<path d="M3975 2101 c-3 -5 -1 -12 5 -16 5 -3 10 1 10 9 0 18 -6 21 -15 7z"/>
<path d="M3688 2093 c7 -3 16 -2 19 1 4 3 -2 6 -13 5 -11 0 -14 -3 -6 -6z"/>
<path d="M100 2010 c0 -5 5 -10 10 -10 6 0 10 5 10 10 0 6 -4 10 -10 10 -5 0
-10 -4 -10 -10z"/>
<path d="M317 1996 c-5 -13 10 -36 23 -36 3 0 6 9 6 20 0 23 -22 35 -29 16z"/>
<path d="M720 1990 c0 -5 7 -10 15 -10 8 0 15 5 15 10 0 6 -7 10 -15 10 -8 0
-15 -4 -15 -10z"/>
<path d="M440 1832 c0 -12 34 -42 47 -42 20 0 34 25 21 38 -14 14 -68 16 -68
4z"/>
<path d="M155 1750 c4 -6 11 -8 16 -5 14 9 11 15 -7 15 -8 0 -12 -5 -9 -10z"/>
<path d="M285 1290 c-19 -8 -19 -9 2 -9 12 -1 25 4 28 9 7 12 -2 12 -30 0z"/>
<path d="M12671 1097 c-38 -19 -35 -33 9 -35 33 -2 39 0 33 14 -3 9 0 20 8 25
22 14 -22 11 -50 -4z"/>
<path d="M210 613 c-36 -7 -49 -23 -20 -24 41 -1 61 -7 78 -22 18 -15 84 -49
87 -45 1 2 8 13 14 26 9 18 9 23 -1 26 -14 4 -94 30 -118 38 -8 3 -26 3 -40 1z"/>
</g>
</svg>
